<svg xmlns="http://www.w3.org/2000/svg" width="1em" height="1em" viewBox="0 0 16 16">
    <path fill="currentColor" fill-rule="evenodd" d="M.667 8C.667 3.95 3.95.667 8 .667c4.05 0 7.333 3.283 7.333 7.333 0 4.05-3.283 7.333-7.333 7.333C3.95 15.333.667 12.05.667 8zM4 7.208c0 .137.055.265.154.361l.315.305c.1.097.233.15.374.15s.275-.053.374-.15l2.031-1.963v6.246c0 .28.227.51.517.51h.447c.29 0 .54-.237.54-.518v-6.26l2.042 1.985c.099.097.224.15.365.15.14 0 .273-.053.372-.15l.315-.305c.1-.096.154-.224.154-.36 0-.137-.055-.265-.154-.361L8.373 3.482c-.099-.096-.232-.149-.374-.149-.14 0-.273.053-.373.15L4.154 6.847c-.1.096-.154.224-.154.36z"/>
</svg>
