<svg xmlns="http://www.w3.org/2000/svg" width="1em" height="1em" viewBox="0 0 24 24">
    <path fill="currentColor" fill-rule="evenodd" d="M18.658.198L17.604 1.97C21.456 3.953 24 7.888 24 12.31 24 18.763 18.632 24 12 24S0 18.763 0 12.31C0 7.866 2.571 3.865 6.57 1.885c.55-.272 1.122-.503 1.71-.69.548-.173 1.138.11 1.32.635.18.524-.116 1.09-.664 1.264-.484.153-.955.344-1.408.568-3.309 1.638-5.441 4.956-5.441 8.65C2.087 17.666 6.529 22 12 22c5.47 0 9.913-4.334 9.913-9.69 0-3.691-2.13-6.969-5.341-8.6l-1.49 2.506L12.617.614l6.042-.416zm-3.886 7.97v1.164h-3.276l-.204 2.268c.372-.192.732-.312 1.212-.312 1.476 0 2.688.876 2.688 2.808 0 1.956-1.428 3.06-2.976 3.06-1.392 0-2.268-.564-2.892-1.176l.66-.9c.504.504 1.14.948 2.064.948.996 0 1.752-.708 1.752-1.884s-.672-1.848-1.68-1.848c-.564 0-.9.168-1.416.504l-.672-.444.264-4.188h4.476z"/>
</svg>
