<svg xmlns="http://www.w3.org/2000/svg" width="20" height="20" viewBox="0 0 20 20">
    <path fill="#585858" fill-rule="evenodd" d="M5.833 14.962c.92 0 1.667.746 1.667 1.667 0 .92-.746 1.666-1.667 1.666-.92 0-1.666-.746-1.666-1.666 0-.92.746-1.667 1.666-1.667zm10 0c.92 0 1.667.746 1.667 1.667 0 .92-.746 1.666-1.667 1.666-.92 0-1.666-.746-1.666-1.666 0-.92.746-1.667 1.666-1.667zM3.333 1.667c.41 0 .739.254.834.833l.75 2.5h13.022c.552 0 1 .448 1 1 0 .068-.007.136-.021.203l-1.31 6.333c-.097.464-.506.797-.98.797H6.262c-.439 0-.824-.286-.954-.7-.023-.04-.04-.083-.05-.133L2.5 3.333h-.833c-.461.014-.834-.362-.834-.833 0-.457.373-.833.834-.833h1.666z"/>
</svg>
