<svg xmlns="http://www.w3.org/2000/svg" width="1em" height="1em" viewBox="0 0 28 28">
    <path fill="currentColor" fill-rule="evenodd" d="M14 21c1.289 0 2.333 1.045 2.333 2.333 0 1.289-1.044 2.334-2.333 2.334-1.289 0-2.333-1.045-2.333-2.334C11.667 22.045 12.71 21 14 21zm0-9.333c1.289 0 2.333 1.044 2.333 2.333 0 1.289-1.044 2.333-2.333 2.333-1.289 0-2.333-1.044-2.333-2.333 0-1.289 1.044-2.333 2.333-2.333zm0-9.334c1.289 0 2.333 1.045 2.333 2.334C16.333 5.955 15.29 7 14 7c-1.289 0-2.333-1.045-2.333-2.333 0-1.289 1.044-2.334 2.333-2.334z"/>
</svg>
