<svg xmlns="http://www.w3.org/2000/svg" width="100" height="100" viewBox="0 0 100 100">
    <path fill="#CDCDCD" d="M50 3.333c25.773 0 46.667 20.894 46.667 46.667 0 25.773-20.894 46.667-46.667 46.667C24.227 96.667 3.333 75.773 3.333 50 3.333 24.227 24.227 3.333 50 3.333zm16.667 61.111H34.444c-1.84 0-3.333 1.493-3.333 3.334 0 1.84 1.492 3.333 3.333 3.333h32.223c1.84 0 3.333-1.492 3.333-3.333 0-1.841-1.492-3.334-3.333-3.334zM41.649 28.591c-1.085-1.084-2.844-1.084-3.928 0l-4.824 4.823-4.822-4.823c-1.084-1.084-2.843-1.084-3.928 0-1.085 1.085-1.085 2.844 0 3.929l4.822 4.822-4.822 4.823-.13.14c-.953 1.09-.91 2.749.13 3.788l.139.13c1.091.953 2.75.91 3.79-.13l4.821-4.823 4.824 4.823c1.084 1.085 2.843 1.085 3.928 0 1.085-1.084 1.085-2.843 0-3.928l-4.824-4.823 4.824-4.822.13-.14c.953-1.09.91-2.749-.13-3.789zm35.556 0c-1.085-1.084-2.844-1.084-3.929 0l-4.823 4.823-4.822-4.823c-1.085-1.084-2.844-1.084-3.929 0-1.084 1.085-1.084 2.844 0 3.929l4.823 4.822-4.823 4.823-.13.14c-.952 1.09-.91 2.749.13 3.788l.14.13c1.09.953 2.75.91 3.789-.13l4.822-4.823 4.823 4.823c1.085 1.085 2.844 1.085 3.929 0 1.084-1.084 1.084-2.843 0-3.928l-4.824-4.823 4.824-4.822.13-.14c.952-1.09.91-2.749-.13-3.789z"/>
</svg>
