<?xml version="1.0" encoding="UTF-8"?>
<svg width="6px" height="12px" viewBox="0 0 6 12" version="1.1" xmlns="http://www.w3.org/2000/svg" xmlns:xlink="http://www.w3.org/1999/xlink">
    <!-- Generator: Sketch 57.1 (83088) - https://sketch.com -->
    <title>facebook</title>
    <desc>Created with Sketch.</desc>
    <g id="Symbols" stroke="none" stroke-width="1" fill="#585858" fill-rule="evenodd">
        <g id="footer" transform="translate(-1140.000000, -19.000000)" fill="currentColor" fill-rule="nonzero">
            <g id="icon-fb" transform="translate(1131.000000, 13.000000)">
                <g id="facebook" transform="translate(9.818182, 6.545455)">
                    <path d="M4.71737537,5.45889925 L3.23680352,5.45889925 C3.23680352,7.90194501 3.23680352,10.9090909 3.23680352,10.9090909 L1.04288856,10.9090909 C1.04288856,10.9090909 1.04288856,7.93109649 1.04288856,5.45889925 L0,5.45889925 L0,3.53262979 L1.04288856,3.53262979 L1.04288856,2.2866878 C1.04288856,1.39434953 1.45344575,0 3.25696481,0 L4.88269795,0.00643604183 L4.88269795,1.87629549 C4.88269795,1.87629549 3.89479472,1.87629549 3.70271261,1.87629549 C3.5106305,1.87629549 3.23753666,1.97548625 3.23753666,2.40102219 L3.23753666,3.53300838 L4.90909091,3.53300838 L4.71737537,5.45889925 Z" id="Path"></path>
                </g>
            </g>
        </g>
    </g>
</svg>