<svg xmlns="http://www.w3.org/2000/svg" width="120" height="120" viewBox="0 0 120 120">
    <path fill="#D9D9D9" fill-rule="evenodd" d="M60 0c33.137 0 60 26.863 60 60 0 2.321-.132 4.612-.388 6.865-3.832 7.152-13.269 7.911-28.31 2.276-5.472-2.05-7.62-2.81-9.633-.853-3.002 2.92 3.07 11.775.297 13.77-3.844 2.767-11.059-3.179-13.603-.312-2.732 3.079.652 7.052 2.681 10.383 5.396 8.854 10.327 20.528-.745 26.99-3.347.58-6.788.881-10.299.881-33.137 0-60-26.863-60-60S26.863 0 60 0zM23 69.333h-.667c-.552 0-1 .448-1 1v3h-3c-.552 0-1 .448-1 1V75c0 .552.448 1 1 1h3v3c0 .552.448 1 1 1H23c.552 0 1-.448 1-1v-3h3c.552 0 1-.448 1-1v-.667c0-.552-.448-1-1-1h-3v-3c0-.552-.448-1-1-1zm49.325-8.221c-.195.453-.446.884-.78 1.265l-.175.186-3.308 3.315 1.103 1.106c.61.61.61 1.6 0 2.21-.571.571-1.474.607-2.087.106l-.118-.107-1.104-1.105-3.308 3.315c-.422.422-.913.748-1.445.98 4.098 3.865 12.735 6.77 16.272 7.454.356.014 1.329.505 2.12-.288.781-.782.317-1.717.305-2.03-.694-3.57-3.612-12.286-7.475-16.407zm-30.564 3.225c.578 1.595 1.464 3.075 2.641 4.34l.3.312 6.82 6.834c.845.847 2.276.459 2.6-.665l.032-.133.764-3.828-.752-.327c-2.979-1.287-7.627-3.325-12.405-6.533zM28.27 26.754c-.786.049-1.412.676-1.46 1.463-.288 4.643.129 8.743 1.04 12.389l.028.104-.023.03c.514 1.772.917 3.01 1.208 3.715.008.02.018.039.03.058l-.011-.03.193.492C34.925 59.112 48.589 65.057 55.4 68.002c1.334.576 2.485 1.076 3 1.404.587.373 1.325.31 1.836-.116l.106-.097 3.308-3.315-9.924-9.943c-.609-.61-.609-1.6 0-2.21.571-.572 1.474-.607 2.087-.107l.118.108 9.924 9.943 3.309-3.315c.518-.52.606-1.328.212-1.946-.328-.515-.826-1.669-1.401-3.006-2.938-6.82-8.9-20.485-22.98-26.158v-.04c-1.306-.546-2.589-.962-3.849-1.249l-.003-.011c-3.766-1.01-8.025-1.487-12.875-1.19zm36.034 14.98c3.228 4.811 5.266 9.482 6.536 12.431.065.153.137.32.212.491l.113.262 3.821-.765c.564-.113 1.02-.528 1.187-1.079.152-.502.041-1.042-.286-1.442l-.104-.116-6.821-6.833c-1.33-1.332-2.93-2.322-4.658-2.948zm-12.78.943c2.431 2.437 2.431 6.402 0 8.84-2.436 2.438-6.395 2.434-8.823 0-2.43-2.438-2.43-6.403 0-8.84 2.434-2.436 6.388-2.436 8.822 0zm-6.618 2.21c-1.215 1.218-1.215 3.2 0 4.42 1.218 1.217 3.2 1.216 4.412 0 1.217-1.22 1.217-3.202 0-4.42-1.216-1.218-3.199-1.216-4.412 0zM95 32h-.667c-.513 0-.935.386-.993.883l-.007.117v2.999l-3 .001c-.513 0-.935.386-.993.883l-.007.117v.667c0 .513.386.935.884.993l.116.007 3-.001v3c0 .514.386.936.884.994l.116.007H95c.513 0 .936-.386.993-.884l.007-.116v-3.001h3c.513 0 .936-.385.993-.883l.007-.116V37c0-.513-.386-.936-.883-.993L99 36h-3v-3c0-.552-.448-1-1-1zM69.667 20H69c-.513 0-.936.386-.993.883L68 21v1.666h-1.667c-.513 0-.935.387-.993.884l-.007.117v.666c0 .513.386.936.884.994l.116.006H68L68 27c0 .513.386.936.883.993L69 28h.667c.513 0 .935-.386.993-.883l.007-.117v-1.667h1.666c.513 0 .936-.386.994-.883l.006-.117v-.666c0-.513-.386-.936-.883-.994l-.117-.006-1.667-.001V21c0-.552-.447-1-1-1z"/>
</svg>
