<svg xmlns="http://www.w3.org/2000/svg" width="12" height="12" viewBox="0 0 12 12">
    <path fill="currentColor" fill-rule="nonzero" d="M3.955.545h4.09a3.41 3.41 0 0 1 3.405 3.223l.005.187v4.09a3.41 3.41 0 0 1-3.223 3.405l-.187.005h-4.09A3.41 3.41 0 0 1 .55 8.232l-.006-.187v-4.09A3.41 3.41 0 0 1 3.768.55l.187-.006h4.09zm4.09 1.023h-4.09a2.39 2.39 0 0 0-2.381 2.223l-.006.164v4.09a2.39 2.39 0 0 0 2.223 2.381l.164.006h4.09a2.39 2.39 0 0 0 2.381-2.223l.006-.164v-4.09a2.389 2.389 0 0 0-2.387-2.387zM6 3.273a2.727 2.727 0 1 1 0 5.455 2.727 2.727 0 0 1 0-5.455zm0 1.022c-.94 0-1.705.765-1.705 1.705 0 .94.765 1.705 1.705 1.705.94 0 1.705-.765 1.705-1.705 0-.94-.765-1.705-1.705-1.705zm2.932-1.59a.363.363 0 1 1 0 .727.363.363 0 0 1 0-.727z"/>
</svg>
