<svg xmlns="http://www.w3.org/2000/svg" width="1em" height="1em" viewBox="0 0 16 16">
    <path fill="currentColor" fill-rule="evenodd" d="M13.333 6c.335 0 .612.247.66.568l.007.099v.652a6 6 0 0 1-5.334 5.963v1.385H10A.667.667 0 1 1 10 16H6a.667.667 0 1 1 0-1.333h1.333v-1.385A6 6 0 0 1 2 7.32v-.602-.05a.667.667 0 1 1 1.333 0l-.003.044h.003v.608a4.667 4.667 0 0 0 9.334 0v-.652c0-.369.298-.667.666-.667zM8 0a3.333 3.333 0 0 1 3.333 3.333v4a3.333 3.333 0 1 1-6.666 0v-4A3.333 3.333 0 0 1 8 0zm0 1.333a2 2 0 0 0-2 2v4a2 2 0 1 0 4 0v-4a2 2 0 0 0-2-2z"/>
</svg>
