<svg xmlns="http://www.w3.org/2000/svg" width="1em" height="1em" viewBox="0 0 24 24">
    <g fill="currentColor" fill-rule="evenodd">
        <path d="M5.21 16.86H2.954V9.07H1V7.346L5.21 7v9.86zM8 17H6v-2h2v2zm7.338-3.712c0 1.162-.31 2.07-.927 2.727-.619.657-1.435.985-2.449.985-1.023 0-1.843-.328-2.461-.985-.618-.656-.928-1.565-.928-2.727v-2.576c0-1.162.307-2.07.921-2.727C10.108 7.328 10.926 7 11.95 7c1.014 0 1.832.33 2.455.988.623.659.934 1.567.934 2.724v2.576zm-2.248-2.73c0-.592-.101-1.044-.304-1.355-.202-.312-.481-.467-.837-.467a.93.93 0 0 0-.834.467c-.196.311-.293.763-.293 1.355v2.87c0 .606.099 1.063.296 1.372.198.31.48.464.844.464.356 0 .633-.154.83-.464.199-.309.298-.766.298-1.371v-2.87zm6.354 1.208h.04l.914-2.13h2.529l-2.095 3.572L23 16.86h-2.528l-.96-2.196h-.04l-.962 2.196h-2.528l2.168-3.652-2.101-3.571h2.515l.88 2.13z"/>
        <path fill-rule="nonzero" d="M5 20v-1H3v3h18v-3h-2v1zM5 3v1H3V1h18v3h-2V3z"/>
    </g>
</svg>
