<svg xmlns="http://www.w3.org/2000/svg" width="24" height="24" viewBox="0 0 24 24">
    <path fill="#585858" fill-rule="evenodd" d="M12 1c2.95 0 5.437 2.139 5.917 5h2.14c.53 0 .967.413.998.941l.883 15c.032.552-.388 1.025-.94 1.057L20.94 23H3.064c-.553 0-1-.448-1-1l.001-.061.925-15C3.022 6.41 3.46 6 3.988 6h2.096l.032-.18C6.669 3.044 9.119 1 12 1zM7 8c-.552 0-1 .448-1 1s.448 1 1 1 1-.448 1-1-.448-1-1-1zm10 0c-.552 0-1 .448-1 1s.448 1 1 1 1-.448 1-1-.448-1-1-1zm-5-5c-1.846 0-3.428 1.26-3.874 3h7.748C15.428 4.263 13.85 3 12 3z"/>
</svg>
