<svg xmlns="http://www.w3.org/2000/svg" width="1em" height="1em" viewBox="0 0 16 16">
    <path fill="currentColor" d="M8 1.333c3.682 0 6.667 2.985 6.667 6.667S11.682 14.667 8 14.667 1.333 11.682 1.333 8 4.318 1.333 8 1.333zm0 1.334C5.054 2.667 2.667 5.054 2.667 8S5.054 13.333 8 13.333 13.333 10.946 13.333 8 10.946 2.667 8 2.667zm0 1.666c.342 0 .624.258.662.59L8.667 5v2.333l2.276 2.276c.26.26.26.683 0 .943-.242.242-.623.26-.885.052L10 10.552 7.724 8.276c-.21-.1-.359-.297-.386-.532l-.005-.077V5c0-.368.299-.667.667-.667z"/>
</svg>
