<svg xmlns="http://www.w3.org/2000/svg" width="100" height="100" viewBox="0 0 100 100">
    <g fill="none" fill-rule="evenodd">
        <g>
            <g>
                <g>
                    <g>
                        <g>
                            <path fill="#CDCDCD" d="M31.67 55.416c8.74-.002 16.073-5.37 16.076-20.358.003-9.59-4.93-20.392-14.8-32.405-.575-.7-1.608-.8-2.308-.226-.081.067-.156.142-.223.223-9.926 12.019-14.89 22.824-14.893 32.416-.004 14.988 7.406 20.352 16.147 20.35z" transform="translate(-670 -379) translate(607 379) translate(54) translate(.944 .833) rotate(-11 99.424 8.562) rotate(56 31.634 28.278)"/>
                            <path fill="#ECECEC" fill-rule="nonzero" d="M3.332 54.14c-.569.724-1.617.85-2.34.282-.724-.569-.85-1.617-.282-2.34 4.46-5.68 9.509-10.95 15.144-15.814 2.103-2.607 3.185-6.54 3.196-11.885.002-.92.75-1.665 1.67-1.663.921.002 1.666.75 1.664 1.67-.006 2.67-.262 5.074-.773 7.208 1.632-1.246 3.308-2.463 5.027-3.649 2.354-2.5 3.373-5.564 3.09-9.302-.068-.918.62-1.718 1.537-1.787.918-.07 1.718.618 1.788 1.536.153 2.031-.014 3.933-.5 5.696 3.697-2.282 7.575-4.438 11.632-6.47.823-.412 1.825-.08 2.237.744.412.823.079 1.824-.744 2.236-4.548 2.278-8.864 4.714-12.946 7.308 2.796.318 5.842 1.3 9.133 2.926.825.407 1.164 1.407.756 2.232-.408.825-1.407 1.164-2.232.756-5.181-2.56-9.44-3.269-12.802-2.237-.195.113-.408.182-.625.208l.042-.031c-1.574 1.118-3.109 2.264-4.605 3.436 3.193.112 6.655 1.355 10.344 3.693.778.493 1.009 1.522.516 2.3-.493.777-1.522 1.008-2.3.516-5.785-3.666-10.425-4.118-14.182-1.585-.043.029-.087.055-.131.08-.344.287-.704.557-1.079.81-.032.021-.064.041-.097.06l.625-.571-.786.715c-4.39 4.037-8.382 8.344-11.977 12.922z" transform="translate(-670 -379) translate(607 379) translate(54) translate(.944 .833) rotate(-11 99.424 8.562)"/>
                        </g>
                        <g>
                            <path fill="#CDCDCD" d="M21.412 37.24c5.828-.001 10.716-3.58 10.718-13.571.002-6.253-3.144-13.278-9.436-21.076-.569-.704-1.601-.815-2.306-.246-.09.072-.171.154-.244.243-6.33 7.802-9.495 14.83-9.497 21.084-.002 9.992 4.938 13.567 10.765 13.566z" transform="translate(-670 -379) translate(607 379) translate(54) translate(.944 .833) scale(1 -1) rotate(-65 15.78 -53.353) rotate(56 21.389 19.148)"/>
                            <path fill="#ECECEC" fill-rule="nonzero" d="M21.127 11.537c.611-.054 1.151.396 1.206 1.008.122 1.36.038 2.616-.25 3.764 2.44-1.504 4.998-2.925 7.673-4.265.549-.275 1.216-.053 1.491.496.275.549.053 1.216-.496 1.491-2.997 1.501-5.842 3.105-8.535 4.812 1.905.18 3.922.862 6.04 2.034.536.298.73.974.433 1.51-.297.537-.973.732-1.51.435-3.592-1.99-6.636-2.316-9.222-1.07l-.109.044c-1.019.735-2.013 1.487-2.982 2.256 2.179.019 4.583.736 7.192 2.132.54.29.745.963.455 1.504-.29.54-.963.745-1.504.455-4.183-2.238-7.47-2.44-9.998-.742-.109.082-.22.161-.334.238l-.057.036.162-.153c-3.036 2.764-5.79 5.72-8.262 8.868-.379.483-1.077.566-1.56.187-.482-.379-.566-1.077-.187-1.56 2.972-3.784 6.335-7.296 10.089-10.537 1.407-1.737 2.13-4.36 2.138-7.928 0-.614.5-1.11 1.113-1.109.614.001 1.11.5 1.109 1.114-.004 1.78-.175 3.383-.516 4.806 1.094-.835 2.218-1.65 3.37-2.446 1.608-1.518 2.28-3.544 2.044-6.173-.055-.612.396-1.152 1.007-1.207z" transform="translate(-670 -379) translate(607 379) translate(54) translate(.944 .833) scale(1 -1) rotate(-65 15.78 -53.353)"/>
                        </g>
                        <path fill="#ECECEC" fill-rule="nonzero" d="M79.826 59.865c-1.608-1.809-3.305-1.887-4.486-.752-1.09 1.047-1.104 2.481.174 3.449 1.473 1.114 4.458.798 5.966-.144-.417-.925-.967-1.78-1.654-2.553zm-6.324 5.354c-3.003-2.273-2.968-6.112-.471-8.51 2.552-2.452 6.429-2.274 9.286.942.735.827 1.348 1.718 1.848 2.663 2.745-2.72 3.943-6.21 3.767-10.233-.19-4.303-2.03-8.958-4.492-12.034-.575-.718-.459-1.767.26-2.342.719-.576 1.767-.46 2.343.26 2.892 3.612 4.998 8.94 5.219 13.97.238 5.44-1.647 10.23-5.839 13.737 3.605 14.96-14.18 38.496-32.943 40.944-.913.119-1.75-.524-1.868-1.437-.12-.913.524-1.75 1.437-1.868C68.487 99.166 84.296 78.58 82.43 65.687c-2.606 1.225-6.438 1.417-8.928-.468z" transform="translate(-670 -379) translate(607 379) translate(54) translate(.944 .833) rotate(32 70.94 69.985)"/>
                    </g>
                </g>
            </g>
        </g>
    </g>
</svg>
