<svg xmlns="http://www.w3.org/2000/svg" width="1em" height="1em" viewBox="0 0 24 24">
    <path fill="currentColor" fill-rule="evenodd" d="M22 21c.552 0 1 .448 1 1s-.448 1-1 1H2c-.552 0-1-.448-1-1s.448-1 1-1h20zm0-8c.552 0 1 .448 1 1s-.448 1-1 1H2c-.552 0-1-.448-1-1s.448-1 1-1h20zM6 1c.502 0 .91.407.91.91l-.001 3.18h3.182c.502 0 .909.408.909.91s-.407.91-.91.91L6.91 6.908v3.182c0 .502-.407.909-.909.909s-.91-.407-.91-.91V6.91H1.91C1.406 6.91 1 6.502 1 6s.407-.91.91-.91h3.18V1.91c0-.503.408-.91.91-.91zm16 4c.552 0 1 .448 1 1s-.448 1-1 1h-9c-.552 0-1-.448-1-1s.448-1 1-1h9z"/>
</svg>
