<svg xmlns="http://www.w3.org/2000/svg" width="1em" height="1em" viewBox="0 0 20 20">
    <path fill="currentColor" fill-rule="evenodd" d="M16.5.833a1 1 0 0 1 1 1v12.334a.833.833 0 0 1-.729.826l-.104.007v2.492c-.052 0 .726.04.823.71l.01.143a.853.853 0 0 1-.852.822H4.5a2 2 0 0 1-2-2V2.833a2 2 0 0 1 2-2h12zM15 15H5.417a1.25 1.25 0 0 0-.128 2.494l.128.006H15V15zm-1.667-7.5H6.667a.833.833 0 1 0 0 1.667h6.666a.833.833 0 1 0 0-1.667zm0-3.333H6.667a.833.833 0 0 0-.105 1.66l.105.006h6.666a.833.833 0 1 0 0-1.666z"/>
</svg>
