<svg width="56" height="56" viewBox="0 0 56 56" xmlns="http://www.w3.org/2000/svg">
    <path d="M20 4.667a1 1 0 0 1 1 1v3.666h14V5.667a1 1 0 0 1 1-1h5a1 1 0 0 1 1 1v3.666h4.667A4.667 4.667 0 0 1 51.333 14v32.667a4.667 4.667 0 0 1-4.666 4.666H9.333a4.667 4.667 0 0 1-4.666-4.666V14a4.667 4.667 0 0 1 4.666-4.667H14V5.667a1 1 0 0 1 1-1h5zm26.667 21H9.333v21h37.334v-21zm-10.09 5.181c.877.805.998 2.124.327 3.07l-.185.227-7 7.629a2.334 2.334 0 0 1-3.173.247l-.21-.189-4.85-4.931a2.333 2.333 0 0 1 3.11-3.468l.218.196 3.128 3.18 5.339-5.819a2.333 2.333 0 0 1 3.297-.142zM46.668 14H9.333v7h37.334v-7z" fill="currentColor" fill-rule="evenodd"/>
</svg>
