<?xml version="1.0" encoding="UTF-8"?>
<svg width="1em" height="1em" viewBox="0 0 16 16" version="1.1" xmlns="http://www.w3.org/2000/svg" xmlns:xlink="http://www.w3.org/1999/xlink">
    <!-- Generator: sketchtool 57.1 (101010) - https://sketch.com -->
    <title>E8B019D4-169D-4BB6-A0C9-B55706191615</title>
    <desc>Created with sketchtool.</desc>
    <g id="12.0.0-促銷管理" stroke="none" stroke-width="1" fill="none" fill-rule="evenodd">
        <g id="六指淵-12.0.1a-優惠券-詳情各狀態" transform="translate(-94.000000, -426.000000)" fill="currentColor">
            <g id="check" transform="translate(94.000000, 426.000000)">
                <path d="M14.0275718,2.57799995 L14.7455206,3.27799995 C15.0848265,3.60882323 15.0848265,4.12451011 14.7498737,4.45101023 L6.54039235,12.7553334 C6.37226455,12.919258 6.18593683,13 5.94871795,13 C5.71149907,13 5.52517135,12.919258 5.34836428,12.7465517 L1.3145835,8.50481032 L1.2280063,8.37819118 C1.08476034,8.22385129 1,8.00648023 1,7.81666667 C1,7.6154378 1.0952618,7.38323715 1.25447944,7.22799995 L1.97242816,6.52799995 C2.30701499,6.20177779 2.82119014,6.20177779 3.15577697,6.52799995 L3.21528962,6.58631143 L5.97521611,9.47323509 L12.7886089,2.58230179 C12.8319499,2.53846755 12.8861847,2.5078996 12.9450011,2.49323348 C13.2756677,2.25477112 13.7250351,2.28302661 14.0275718,2.57799995 Z" id="Combined-Shape"></path>
            </g>
        </g>
    </g>
</svg>
