<svg xmlns="http://www.w3.org/2000/svg" width="1em" height="1em" viewBox="0 0 20 20">
    <path fill="currentColor" fill-rule="evenodd" d="M10 .833c1.088 0 2.014.696 2.358 1.667H15.5a2 2 0 0 1 2 2v12.667a2 2 0 0 1-2 2h-11a2 2 0 0 1-2-2V4.5a2 2 0 0 1 2-2h3.142A2.501 2.501 0 0 1 10 .833zm-4.167 12.5a.833.833 0 1 0 0 1.667.833.833 0 0 0 0-1.667zm8.334 0h-5a.833.833 0 0 0-.105 1.66l.105.007h5a.833.833 0 1 0 0-1.667zM5.833 10a.833.833 0 1 0 0 1.667.833.833 0 0 0 0-1.667zm8.334 0h-5a.833.833 0 0 0-.105 1.66l.105.007h5a.833.833 0 0 0 0-1.667zm0-3.333h-5a.833.833 0 0 0-.105 1.66l.105.006h5a.833.833 0 1 0 0-1.666zm-8.334 0a.833.833 0 1 0 0 1.666.833.833 0 0 0 0-1.666zM10 2.5a.833.833 0 1 0 0 1.667.833.833 0 0 0 0-1.667z"/>
</svg>
