<svg width="46" height="33" viewBox="0 0 46 33" xmlns="http://www.w3.org/2000/svg">
    <path d="M33.5 0c.976 0 2.11.087 3.402.26l.72.104c.123.018.247.038.372.058l.769.129c.653.114 1.34.247 2.059.397l.88.189.911.206.944.223.975.24.5.127c.57.145.968.65.968 1.228v28.57c0 .835-.809 1.442-1.63 1.224l-.48-.126-.932-.239-.902-.221-.87-.205a78.031 78.031 0 0 0-.422-.096l-.822-.179a51.632 51.632 0 0 0-2.965-.545l-.661-.093c-1.074-.142-2.013-.213-2.816-.213-.803 0-1.742.071-2.816.213l-.66.093a53.38 53.38 0 0 0-3.373.632l-.838.188-.87.205-.139.034c-.289.452-.858.705-1.435.552l-.478-.126.11.029-.37.097a1.304 1.304 0 0 1-1.435-.552l-.14-.034-.87-.205a78.031 78.031 0 0 0-.422-.096l-.822-.179a51.632 51.632 0 0 0-2.965-.545l-.661-.093c-1.074-.142-2.013-.213-2.816-.213-.803 0-1.742.071-2.816.213l-.66.093a53.38 53.38 0 0 0-3.373.632l-.838.188-.87.205-.9.221-.463.118-.95.247C.81 33.173 0 32.565 0 31.73V3.161c0-.578.398-1.083.968-1.228l.5-.127.975-.24.944-.223.912-.206.88-.189C5.897.798 6.583.665 7.236.551l.769-.13.372-.057.72-.104C10.391.087 11.524 0 12.5 0s2.11.087 3.402.26l.72.104c.123.018.247.038.372.058l.769.129c.653.114 1.34.247 2.059.397l.88.189.911.206.944.223.443.109.443-.109.944-.223.912-.206.88-.189c.719-.15 1.405-.283 2.058-.397l.769-.13.372-.057.72-.104C31.391.087 32.524 0 33.5 0zm0 2.538c-.878 0-1.924.083-3.135.249l-.677.098-.71.115-.743.132-.383.072-.791.156-.408.084-.84.181c-.286.063-.576.13-.873.198l.06-.015v25.936l.796-.181c2.863-.636 5.222-.987 7.088-1.052l.344-.009.272-.002c1.86 0 4.275.322 7.255.965l.912.202.945.222.802.196V4.147l-.924-.223-.923-.214-.888-.195-.852-.178-.414-.082-.8-.15c-1.955-.356-3.58-.543-4.87-.565zm-21 0c-.878 0-1.924.083-3.135.249l-.677.098-.71.115-.743.132-.383.072-.791.156-.408.084-.84.181c-.286.063-.576.13-.873.198l-.904.214-.45.11v25.937l.803-.195c.16-.04.32-.077.477-.114l.93-.212c3.042-.675 5.515-1.03 7.432-1.06l.272-.003c1.86 0 4.275.322 7.255.965l.912.202.333.078V3.81l-.433-.1-.888-.195-.852-.178-.414-.082-.8-.15c-1.955-.356-3.58-.543-4.87-.565zM12 18c.963 0 2.202.122 3.728.364l.725.12.377.066.787.146.408.08c.667.13 1.09.729.947 1.336-.144.608-.801.994-1.468.862l-.365-.07-.702-.131-.337-.06-.646-.109-.608-.094-.57-.08-.532-.065A15.962 15.962 0 0 0 12 20.25c-.418 0-.916.03-1.492.088l-.513.058c-.089.01-.18.022-.271.034l-.57.08-.608.094-.646.109-.683.123-.72.138c-.668.132-1.325-.254-1.469-.862-.144-.607.28-1.206.947-1.337l.807-.154c.13-.024.26-.048.388-.07l.745-.13C9.606 18.142 10.963 18 12 18zm22 0c.963 0 2.202.122 3.728.364l.725.12.377.066.787.146.408.08c.667.13 1.09.729.947 1.336-.144.608-.801.994-1.468.862l-.365-.07-.702-.131-.337-.06-.646-.109-.608-.094-.57-.08-.532-.065A15.962 15.962 0 0 0 34 20.25c-.418 0-.916.03-1.492.088l-.513.058c-.089.01-.18.022-.271.034l-.57.08-.608.094-.646.109-.683.123-.72.138c-.668.132-1.325-.254-1.469-.862-.144-.607.28-1.206.947-1.337l.807-.154c.13-.024.26-.048.388-.07l.745-.13C31.606 18.142 32.963 18 34 18zm-22-5c.963 0 2.202.122 3.728.364l.725.12.377.066.787.146.408.08c.667.13 1.09.729.947 1.336-.144.608-.801.994-1.468.862l-.365-.07-.702-.131-.337-.06-.646-.109-.608-.094-.57-.08-.532-.065A15.962 15.962 0 0 0 12 15.25c-.418 0-.916.03-1.492.088l-.513.058c-.089.01-.18.022-.271.034l-.57.08-.608.094-.646.109-.683.123-.72.138c-.668.132-1.325-.254-1.469-.862-.144-.607.28-1.206.947-1.337l.807-.154c.13-.024.26-.048.388-.07l.745-.13C9.606 13.142 10.963 13 12 13zm22 0c.963 0 2.202.122 3.728.364l.725.12.377.066.787.146.408.08c.667.13 1.09.729.947 1.336-.144.608-.801.994-1.468.862l-.365-.07-.702-.131-.337-.06-.646-.109-.608-.094-.57-.08-.532-.065A15.962 15.962 0 0 0 34 15.25c-.418 0-.916.03-1.492.088l-.513.058c-.089.01-.18.022-.271.034l-.57.08-.608.094-.646.109-.683.123-.72.138c-.668.132-1.325-.254-1.469-.862-.144-.607.28-1.206.947-1.337l.807-.154c.13-.024.26-.048.388-.07l.745-.13C31.606 13.142 32.963 13 34 13zM12 8c.963 0 2.202.122 3.728.364l.725.12.377.066.787.146.408.08c.667.13 1.09.729.947 1.336-.144.608-.801.994-1.468.862l-.365-.07-.702-.131-.337-.06-.646-.109-.608-.094-.57-.08-.532-.065A15.962 15.962 0 0 0 12 10.25c-.418 0-.916.03-1.492.088l-.513.058c-.089.01-.18.022-.271.034l-.57.08-.608.094-.646.109-.683.123-.72.138c-.668.132-1.325-.254-1.469-.862-.144-.607.28-1.206.947-1.337l.807-.154c.13-.024.26-.048.388-.07l.745-.13C9.606 8.142 10.963 8 12 8zm22 0c.963 0 2.202.122 3.728.364l.725.12.377.066.787.146.408.08c.667.13 1.09.729.947 1.336-.144.608-.801.994-1.468.862l-.365-.07-.702-.131-.337-.06-.646-.109-.608-.094-.57-.08-.532-.065A15.962 15.962 0 0 0 34 10.25c-.418 0-.916.03-1.492.088l-.513.058c-.089.01-.18.022-.271.034l-.57.08-.608.094-.646.109-.683.123-.72.138c-.668.132-1.325-.254-1.469-.862-.144-.607.28-1.206.947-1.337l.807-.154c.13-.024.26-.048.388-.07l.745-.13C31.606 8.142 32.963 8 34 8z" fill="#FFF" fill-rule="nonzero" opacity=".8"/>
</svg>
