<svg xmlns="http://www.w3.org/2000/svg" width="1em" height="1em" viewBox="0 0 20 20">
    <path fill="currentColor" fill-rule="evenodd" d="M12.833.833a3 3 0 0 1 3 3v.333h.834a3.333 3.333 0 0 1 3.328 3.151L20 7.5v5.833a3.335 3.335 0 0 1-2.5 3.229v2.41l-3.842-2.305H8.333a3.335 3.335 0 0 1-3.228-2.5H3.833a3 3 0 0 1-3-3V3.833a3 3 0 0 1 3-3h9zm3.834 5h-.826l-.007.091v5.243a3 3 0 0 1-3 3H6.89c.289.498.827.833 1.443.833h5.787l1.713 1.028V15h.834c.92 0 1.666-.746 1.666-1.667V7.5c0-.92-.746-1.667-1.666-1.667zm-5 2.5H5a.833.833 0 0 0-.105 1.66L5 10h6.667a.833.833 0 1 0 0-1.667zm0-3.333H5a.833.833 0 0 0-.105 1.66L5 6.667h6.667a.833.833 0 0 0 0-1.667z"/>
</svg>
