<svg width="20" height="20" viewBox="0 0 20 20" xmlns="http://www.w3.org/2000/svg">
    <path d="M11.333 1.667a2 2 0 0 1 2 2V7.5h3a2 2 0 0 1 2 2v6.833a2 2 0 0 1-2 2h-3.5c-.265 0-.519-.051-.75-.145-.231.094-.484.145-.75.145H3.667a2 2 0 0 1-2-2V3.667a2 2 0 0 1 2-2h7.666zM5.667 12.5h-.5a1 1 0 0 0-.994.883l-.006.117v.5a1 1 0 0 0 .883.993l.117.007h.5a1 1 0 0 0 .993-.883L6.667 14v-.5a1 1 0 0 0-1-1zm4.166 0h-.5a1 1 0 0 0-.993.883l-.007.117v.5a1 1 0 0 0 .884.993l.116.007h.5a1 1 0 0 0 .994-.883l.006-.117v-.5a1 1 0 0 0-1-1zM5.667 8.333h-.5a1 1 0 0 0-.994.884l-.006.116v.5a1 1 0 0 0 .883.994l.117.006h.5a1 1 0 0 0 .993-.883l.007-.117v-.5a1 1 0 0 0-1-1zm4.166 0h-.5a1 1 0 0 0-.993.884l-.007.116v.5a1 1 0 0 0 .884.994l.116.006h.5a1 1 0 0 0 .994-.883l.006-.117v-.5a1 1 0 0 0-1-1zM5.667 4.167h-.5a1 1 0 0 0-.994.883l-.006.117v.5a1 1 0 0 0 .883.993l.117.007h.5a1 1 0 0 0 .993-.884l.007-.116v-.5a1 1 0 0 0-1-1zm4.166 0h-.5a1 1 0 0 0-.993.883l-.007.117v.5a1 1 0 0 0 .884.993l.116.007h.5a1 1 0 0 0 .994-.884l.006-.116v-.5a1 1 0 0 0-1-1z" fill="currentColor" fill-rule="evenodd"/>
</svg>
