<svg width="20" height="20" viewBox="0 0 20 20" xmlns="http://www.w3.org/2000/svg">
    <path d="M15 10.833a4.167 4.167 0 1 1 0 8.334 4.167 4.167 0 0 1 0-8.334zm-7.174.834s.653.57 2.174.57c.335 0 .629-.027.882-.07A4.96 4.96 0 0 0 10 15c0 1.27.474 2.43 1.255 3.313-.392.013-.81.02-1.255.02-5.566 0-7.124-1.158-7.435-1.458l-.033-.033a.525.525 0 0 1-.028-.033l-.003-.004v-.326c.001.013.004-.025.01-.246.085-3.103.728-3.998 5.315-4.566zm7.204.833c-.589 0-1.074.197-1.455.59-.439.451-.658 1.094-.658 1.928 0 .771.192 1.378.578 1.821.386.44.915.661 1.59.661.544 0 .99-.163 1.34-.49a2.11 2.11 0 0 0 .61-1.079l.039-.19h-.97c-.065.246-.148.43-.247.554-.18.229-.442.343-.785.343-.335 0-.611-.133-.828-.4-.218-.267-.326-.668-.326-1.204 0-.536.103-.95.308-1.243a.975.975 0 0 1 .842-.439c.35 0 .614.104.792.311.08.094.148.223.204.388l.04.13h.98c-.015-.297-.124-.594-.325-.89-.364-.527-.94-.791-1.729-.791zM10 1.667c3.554 0 4.167 2.052 4.167 4.583S12.3 10.833 10 10.833c-2.301 0-4.167-2.052-4.167-4.583S6.446 1.667 10 1.667z" fill="#585858" fill-rule="evenodd"/>
</svg>
