<svg width="20" height="20" viewBox="0 0 20 20" xmlns="http://www.w3.org/2000/svg">
    <path d="M12.5.833c.92 0 1.667.747 1.667 1.667l-.001 1.666H17.5a.833.833 0 1 1 0 1.667h-.093l-.754 12.55a.833.833 0 0 1-.832.784H4.214a.833.833 0 0 1-.832-.782L2.597 5.833H2.5a.833.833 0 1 1 0-1.666h3.333V2.5c0-.92.747-1.667 1.667-1.667h5zm3.237 5H4.267l.73 11.667h10.04l.7-11.667zm-7.404 2.5c.46 0 .834.373.834.834v5a.833.833 0 0 1-1.667 0v-5c0-.46.373-.834.833-.834zm3.334 0c.46 0 .833.373.833.834v5a.833.833 0 1 1-1.667 0v-5c0-.46.373-.834.834-.834zM12.5 2.5h-5v1.667h5V2.5z" fill="#585858" fill-rule="evenodd"/>
</svg>
