<svg xmlns="http://www.w3.org/2000/svg" width="1em" height="1em" viewBox="0 0 24 24">
    <path fill="#585858" fill-rule="evenodd" d="M20.036 1A3.5 3.5 0 0 0 23 4.964l-.001 15.07A3.502 3.502 0 0 0 20.035 23H3.965A3.502 3.502 0 0 0 1 20.036V4.964A3.5 3.5 0 0 0 3.964 1h16.072zM16 13a3 3 0 1 0 0 6 3 3 0 0 0 0-6zm1.054-6.054a1 1 0 0 0-1.414 0l-8.638 8.638a1 1 0 1 0 1.414 1.414l8.638-8.638a1 1 0 0 0 0-1.414zM16 15a1 1 0 1 1 0 2 1 1 0 0 1 0-2zM8 5a3 3 0 1 0 0 6 3 3 0 0 0 0-6zm0 2a1 1 0 1 1 0 2 1 1 0 0 1 0-2z"/>
</svg>
