<svg xmlns="http://www.w3.org/2000/svg" width="24" height="24" viewBox="0 0 24 24">
    <g fill="none" fill-rule="evenodd">
        <g fill="#10BAD9">
            <g>
                <g>
                    <path d="M25 20c.552 0 1 .448 1 1s-.448 1-1 1H7c-.552 0-1-.448-1-1s.448-1 1-1h18zM21.418 2.414l2.156 2.159.012.012c.774.788.763 2.055-.026 2.828l-9.33 9.16c-.15.148-.342.244-.55.276l-4.305.655c-.107.016-.216.015-.323-.004-.544-.095-.907-.613-.812-1.157l.705-4.032c.036-.202.133-.389.279-.534l9.366-9.364c.781-.78 2.048-.78 2.828.001zm-1.415 1.414l-9.142 9.14-.411 2.35 2.61-.398 9.1-8.934-2.157-2.158z" transform="translate(-506 -83) translate(460 37) translate(42 46)"/>
                </g>
            </g>
        </g>
    </g>
</svg>
