<svg xmlns="http://www.w3.org/2000/svg" width="1em" height="1em" viewBox="0 0 20 20">
    <g fill="none" fill-rule="evenodd">
        <g fill="currentColor">
            <g>
                <path d="M10 .833c5.063 0 9.167 4.104 9.167 9.167S15.063 19.167 10 19.167.833 15.063.833 10 4.937.833 10 .833zm4.53 4.638c-.35-.35-.918-.35-1.268 0L10 8.733 6.738 5.471c-.35-.35-.917-.35-1.267 0-.35.35-.35.917 0 1.267L8.733 10l-3.262 3.262c-.35.35-.35.917 0 1.267.35.35.917.35 1.267 0L10 11.267l3.262 3.262c.35.35.917.35 1.267 0 .35-.35.35-.917 0-1.267L11.267 10l3.262-3.262c.35-.35.35-.917 0-1.267z" transform="translate(-1140 -2371) translate(1140 2371)"/>
            </g>
        </g>
    </g>
</svg>
