<svg width="35" height="27" viewBox="0 0 35 27" xmlns="http://www.w3.org/2000/svg">
    <path d="M17.355 0c7.528 0 13.352 4.368 17.343 12.857L35 13.5l-.302.643C30.708 22.633 24.883 27 17.355 27 9.816 27 4.077 22.62.275 14.117L0 13.5l.276-.617C4.077 4.38 9.816 0 17.355 0zm.363 2.842C11.561 2.842 6.865 6.315 3.5 13.5c3.365 7.185 8.061 10.658 14.218 10.658 6.16 0 10.947-3.476 14.482-10.658-3.535-7.182-8.322-10.658-14.482-10.658zM17.5 6a7.5 7.5 0 1 1 0 15 7.5 7.5 0 0 1 0-15zm0 2.857a4.643 4.643 0 1 0 0 9.286 4.643 4.643 0 0 0 0-9.286z" fill="#FFF" fill-rule="evenodd"/>
</svg>
