<svg xmlns="http://www.w3.org/2000/svg" width="1em" height="1em" viewBox="0 0 16 16">
    <path fill="currentColor" fill-rule="evenodd" d="M8 2c3.379 0 5.993 1.941 7.784 5.714l.135.286-.135.286C13.993 12.059 11.379 14 8 14 4.617 14 2.041 12.053.335 8.274L.211 8l.124-.274C2.041 3.946 4.617 2 8 2zm0 1.333C5.262 3.333 3.174 4.854 1.677 8 3.174 11.146 5.262 12.667 8 12.667c2.739 0 4.868-1.522 6.44-4.667C12.868 4.855 10.739 3.333 8 3.333zm0 1.334c1.84 0 3.333 1.492 3.333 3.333 0 1.84-1.492 3.333-3.333 3.333-1.84 0-3.333-1.492-3.333-3.333 0-1.84 1.492-3.333 3.333-3.333zM8 6c-1.105 0-2 .895-2 2s.895 2 2 2 2-.895 2-2-.895-2-2-2z"/>
</svg>
