<svg width="35" height="35" viewBox="0 0 35 35" xmlns="http://www.w3.org/2000/svg">
    <path d="M21.187 1.458c.793 0 1.553.324 2.103.896l3.263 3.396 3.261 3.403c.52.543.811 1.266.811 2.018v19.454a2.917 2.917 0 0 1-2.917 2.917H7.292a2.917 2.917 0 0 1-2.917-2.917V4.375a2.917 2.917 0 0 1 2.917-2.917h13.895zm-2.229 2.916-11.666.001v26.25h20.416v-17.5h-5.833a2.917 2.917 0 0 1-2.917-2.917V4.374zm4.922 10.443.673.67c.318.317.318.81.004 1.123l-7.696 7.948a.744.744 0 0 1-.555.234.751.751 0 0 1-.563-.243l-3.781-4.06-.082-.12a.837.837 0 0 1-.213-.538c0-.193.089-.415.238-.563l.673-.67a.774.774 0 0 1 1.11 0l.055.056 2.588 2.762 6.387-6.594a.311.311 0 0 1 .147-.086.772.772 0 0 1 1.015.081zM21.874 5.09l.001 5.118h4.91L24.45 7.77l-2.576-2.68z" fill="#FFF" fill-rule="evenodd"/>
</svg>
