<svg xmlns="http://www.w3.org/2000/svg" width="1em" height="1em" viewBox="0 0 40 40">
    <path fill="currentColor" fill-rule="evenodd" d="M19.93 2.299c4.746 0 8.608 3.735 8.608 8.325 0 .523-.057 1.033-.153 1.53h2.727c1.2 0 2.273.736 2.672 1.83l2.688 7.39c.073.202.068.41.007.599.027.152.048.306.048.465v12.947c0 1.511-1.27 2.74-2.832 2.74H6.166c-1.562 0-2.833-1.229-2.833-2.74V22.438c0-.159.022-.313.05-.465-.063-.189-.068-.397.006-.599l2.688-7.39c.398-1.094 1.472-1.83 2.672-1.83h2.726c-.096-.497-.152-1.007-.152-1.53 0-4.59 3.861-8.325 8.607-8.325zm13.765 19.295H6.166c-.48 0-.872.379-.872.844v12.947c0 .466.391.844.872.844h27.529c.48 0 .871-.378.871-.844V22.438c0-.465-.391-.844-.871-.844zM19.93 24.002c.96-.782 2.235-1.124 3.537-.906 2.033.339 3.565 2.111 3.563 4.123-.004 4.467-6.448 7.114-6.723 7.225-.12.049-.248.073-.376.073-.132 0-.262-.026-.385-.075-.276-.115-6.776-2.843-6.715-7.288.027-1.997 1.576-3.744 3.602-4.065 1.287-.201 2.546.14 3.497.913zm3.015.938c-.878-.082-1.708.291-2.202 1-.364.521-1.26.523-1.625 0-.449-.643-1.178-1.01-1.965-1.01-.133 0-.268.01-.403.031-1.084.172-1.944 1.145-1.959 2.218-.033 2.45 3.404 4.547 5.142 5.35 1.724-.786 5.134-2.85 5.136-5.31.002-1.083-.849-2.073-1.935-2.254zm-10.85-10.89H8.749c-.369 0-.7.227-.822.564l-1.853 5.093c.032-.001.061-.01.092-.01h27.529c.03 0 .06.009.092.01l-1.853-5.093c-.122-.337-.453-.564-.822-.564h-3.346c-1.354 2.884-4.353 4.9-7.836 4.9-3.483 0-6.482-2.016-7.835-4.9zm7.835-9.855c-3.664 0-6.647 2.884-6.647 6.429 0 3.545 2.983 6.429 6.647 6.429 3.665 0 6.647-2.884 6.647-6.429 0-3.545-2.982-6.429-6.647-6.429zm-.007 1.383c.293 0 .497.14.576.393.062.2.093.439.093.708 0 .09-.002.177-.006.259l-.005.113c.093.02.203.048.332.086.2.057.402.13.6.215.207.09.388.198.54.322.177.148.267.318.267.509 0 .161-.061.304-.181.426-.196.198-.504.238-.853.117-.117-.04-.235-.086-.354-.135-.117-.049-.229-.097-.333-.146l-.024-.011c-.004.268-.005.534 0 .798.003.307.001.622-.005.943.228.084.456.171.685.26.274.108.526.244.751.402.228.16.419.356.566.58.152.23.229.508.229.824 0 .361-.075.672-.225.926-.147.25-.339.46-.568.627-.227.165-.486.295-.768.388-.226.074-.456.135-.685.182v.282c0 .137.005.275.013.416v.025l-.006.024c-.05.184-.138.325-.26.418-.125.093-.26.141-.404.141-.2 0-.352-.062-.454-.184-.087-.104-.146-.234-.175-.386-.027-.137-.04-.291-.04-.46 0-.117-.003-.23-.007-.339-.219-.057-.411-.119-.575-.182-.195-.075-.368-.163-.514-.262-.142-.095-.273-.202-.388-.318-.11-.111-.22-.232-.33-.363-.079-.097-.125-.21-.14-.337-.017-.124-.003-.243.039-.354.042-.112.112-.21.21-.288.187-.15.468-.18.715-.014.086.058.18.13.283.21.097.08.207.164.328.254.111.082.238.16.38.234l.01-1.876-.484-.22c-.24-.107-.47-.244-.686-.407-.218-.164-.408-.361-.565-.584-.167-.237-.25-.51-.25-.812 0-.234.05-.466.148-.689.1-.22.241-.423.423-.602.18-.18.406-.331.67-.45.224-.102.474-.175.745-.22v-.27c0-.283.031-.536.093-.752.076-.272.285-.42.59-.42zm.644 5.983c0 .237-.003.473-.005.706-.004.254-.006.51-.006.764.065-.016.132-.035.197-.06.132-.049.291-.124.471-.223.096-.08.166-.187.193-.311.022-.11-.006-.222-.087-.34-.155-.127-.304-.241-.448-.343-.09-.063-.195-.128-.315-.193zM19.24 8.396l-.04.011c-.077.02-.151.05-.228.092-.072.04-.141.092-.205.154-.051.05-.093.113-.125.19.007.177.083.334.23.476.11.107.233.203.368.287z"/>
</svg>
