<svg xmlns="http://www.w3.org/2000/svg" width="14" height="10" viewBox="0 0 14 10">
    <path fill="currentColor" fill-rule="evenodd" d="M2.524 6c.963 0 .167.731.167.731s-.778.732-.778 1.674c0 .941.315 1.014.37 1.152.056.137.037.344-.185.384 0 0-2.098.553-2.098-1.715C0 6.91 1.56 6 2.524 6zm8.952 0C12.439 6 14 6.91 14 8.226c0 2.268-2.098 1.715-2.098 1.715-.222-.04-.24-.247-.185-.384.055-.138.37-.21.37-1.152S11.31 6.73 11.31 6.73 10.513 6 11.476 6zm-2.85-1c.173 0 .503.326.503.326S11 6.796 11 8.012c0 1.84-.837 1.979-1.017 1.988h-5.88S3 9.733 3 8.264c0-1.469 1.28-2.552 1.496-2.73.216-.178.533-.534.777-.534zM2.5 2a1.5 1.5 0 1 1 0 3 1.5 1.5 0 0 1 0-3zm9 0a1.5 1.5 0 1 1 0 3 1.5 1.5 0 0 1 0-3zM7 0a2 2 0 1 1 0 4 2 2 0 0 1 0-4z"/>
</svg>
