<svg xmlns="http://www.w3.org/2000/svg" width="1em" height="1em" viewBox="0 0 24 24">
    <g fill="none" fill-rule="evenodd">
        <g fill="currentColor">
            <path d="M18.984 7.924l-.012-.185c.92.412 1.783.995 2.538 1.75 3.32 3.32 3.32 8.702 0 12.021-3.319 3.32-8.701 3.32-12.02 0-.756-.755-1.34-1.618-1.751-2.538 2.935.212 5.942-.804 8.186-3.047 2.196-2.197 3.216-5.125 3.06-8l-.013-.186zm-2.098-.81l.03.19c.017.123.032.246.044.369l.005.066c.007.07.013.14.017.21l.004.072c.005.08.008.157.01.236l.002.07c.002.067.002.133.002.2l-.001.107c-.003.167-.01.334-.023.5l-.01.119-.015.166-.009.07c-.008.076-.018.15-.029.225l-.026.172-.012.073.012-.073c-.013.079-.027.157-.042.235l-.035.173-.011.048-.054.228-.05.194-.01.031.01-.031c-.022.079-.045.158-.07.237l-.05.159-.011.033c-.026.08-.054.158-.083.237-.084.23-.178.457-.283.68-.066.141-.137.281-.211.42l-.082.148-.034.06.034-.06-.084.145c-.047.08-.096.16-.146.238-.076.119-.155.237-.238.353-.166.234-.345.46-.537.68l-.17.19-.22.226c-1.566 1.567-3.59 2.394-5.642 2.482L8.575 17c-.489.004-.978-.034-1.461-.113-.43-2.611.362-5.384 2.376-7.397 1.64-1.641 3.785-2.47 5.935-2.49.489-.004.978.034 1.461.113zM14.51 2.49c.756.755 1.34 1.618 1.751 2.538-2.935-.213-5.942.803-8.186 3.047-2.244 2.244-3.26 5.251-3.048 8.186-.92-.411-1.782-.995-2.537-1.75-3.32-3.32-3.32-8.702 0-12.021 3.319-3.32 8.701-3.32 12.02 0z"/>
        </g>
    </g>
</svg>
