<svg xmlns="http://www.w3.org/2000/svg" width="1em" height="1em" viewBox="0 0 12 12">
    <g fill="none" fill-rule="evenodd">
        <g fill="currentColor">
            <g>
                <g>
                    <path d="M10.125.5c.76 0 1.375.614 1.375 1.37v6.76c0 .758-.616 1.371-1.375 1.371h-1.8L6.007 12 3.68 10.001H1.875c-.76 0-1.375-.613-1.375-1.37V1.87C.5 1.114 1.116.5 1.875.5h8.25zm0 1.37h-8.25v6.76h2.316l1.814 1.559L7.813 8.63h2.312V1.87zM6.75 6c.414 0 .75.336.75.75s-.336.75-.75.75h-3c-.414 0-.75-.336-.75-.75S3.336 6 3.75 6h3zm1.5-2.5c.414 0 .75.336.75.75S8.664 5 8.25 5h-4.5C3.336 5 3 4.664 3 4.25s.336-.75.75-.75h4.5z" transform="translate(-276 -906) translate(80 688) translate(196 218)"/>
                </g>
            </g>
        </g>
    </g>
</svg>
