<svg xmlns="http://www.w3.org/2000/svg" width="1em" height="1em" viewBox="0 0 24 24">
    <g fill="none" fill-rule="evenodd">
        <path d="M0 0h24v24H0z"/>
        <path fill="#FFF" d="M4.363 2.666l.04.04-.03.03 16.93 16.874.002-.002.029.029-1.697 1.697-1.709-1.709a8.36 8.36 0 0 1-3.276.771l-.252.004V18c.579 0 1.139-.082 1.668-.235l-4.035-4.035.001 7.8-5.894-6.035H2.2a1 1 0 0 1-1-1V9.364a1 1 0 0 1 1-1h3.94l.261-.266-3.735-3.735 1.697-1.697zM14.4 3.6a8.4 8.4 0 0 1 6.643 13.542l-1.72-1.71A6 6 0 0 0 14.4 6V3.599zm0 4.8a3.6 3.6 0 0 1 3.595 3.409L18 12c0 .612-.153 1.188-.422 1.692L14.4 10.526V8.4zm-2.366-6l-.001 5.768L9.16 5.307 12.034 2.4z"/>
    </g>
</svg>
