<svg xmlns="http://www.w3.org/2000/svg" width="48" height="48" viewBox="0 0 48 48">
    <g fill="none" fill-rule="evenodd">
        <g fill="#585858">
            <g>
                <g>
                    <path d="M21.865 7.11c.467 0 .866.33.961.802l.017.176v3.689h2.133c.466 0 .865.33.96.8l.018.178v2.531c1.862 1.108 2.962 2.786 3.097 4.824l.013.421V43.24c0 .466-.329.865-.8.96l-.177.017h-17.11c-.466 0-.865-.329-.96-.8L10 43.24V20.53c0-2.093.997-3.872 2.84-5.076l.27-.054v-2.646c0-.467.33-.866.802-.961l.176-.017h2.133V8.088c0-.466.33-.865.801-.96l.177-.017h4.666zm5.244 33.997H11.955v1.155H27.11v-1.155zm0-19.598H11.955v17.642H27.11V21.51zM15.644 36.041c.54 0 .977.437.977.977s-.438.978-.977.978c-.54 0-.978-.438-.978-.978s.438-.977.978-.977zm7.777 0c.54 0 .977.437.977.977 0 .467-.329.866-.8.961l-.177.017h-4.667c-.54 0-.977-.438-.977-.978 0-.466.329-.865.8-.96l.177-.017h4.667zm-3.889-12.91c.313 0 .607.15.8.418l.085.144.875 2.072 2.276.348c.362.055.663.309.78.656.092.276.057.577-.107.84l-.12.153-1.617 1.54.396 2.426c.06.37-.096.741-.402.957-.241.17-.547.221-.852.133l-.184-.077-1.833-1.12-2.027 1.12c-.327.181-.73.16-1.036-.056-.243-.171-.393-.442-.413-.759l.011-.198.45-2.254-1.67-1.712c-.256-.262-.344-.645-.228-.993.093-.275.302-.494.592-.607l.188-.049 2.126-.235 1.025-2.185c.161-.343.506-.562.885-.562zm0 3.279l-.316.674c-.088.188-.233.34-.42.443l-.15.066-.168.042-.806.123.616.631c.13.132.217.297.255.483l.022.192-.012.165-.135.827.641-.354c.146-.08.309-.123.473-.123.073 0 .145.009.221.026l.116.035.136.062.641.354-.135-.827c-.03-.183-.006-.368.069-.542l.092-.17.105-.128.615-.63-.806-.124c-.205-.031-.393-.126-.544-.278l-.106-.123-.088-.15-.316-.674zm-5.16-9.59c-1.03.549-1.795 1.302-2.165 2.283l-.11.336-.025.115h14.924c-.25-1.034-.908-1.876-1.912-2.508l-.348-.203-10.364-.024zm15.254-5.043l.077.005-.013.201.04.005.038.005.002-.005.011-.2.021.002 9.333 1.556c.532.088.892.592.803 1.125-.088.532-.592.892-1.125.803l-9.332-1.555c-.532-.089-.892-.592-.804-1.125.08-.474.486-.81.95-.817zm-5.628 1.955h-8.932v1.156h8.932v-1.156zm-3.11-4.666h-2.711v2.71h2.71v-2.71zm16.53-.4c.54 0 .979.438.979.978 0 .466-.33.865-.801.96l-.177.018h-3.11c-.54 0-.979-.438-.979-.978 0-.467.33-.866.801-.961l.177-.017h3.11zm-6.22 0c.54 0 .977.438.977.978 0 .466-.33.865-.8.96l-.178.018h-3.11c-.54 0-.978-.438-.978-.978 0-.467.33-.866.8-.961l.178-.017h3.11zm8.696-4.02l.045.171c.076.46-.183.908-.633 1.08l-.171.045-9.333 1.556c-.532.088-1.036-.271-1.125-.804-.076-.46.183-.908.633-1.08l.171-.045 9.332-1.556c.473-.078.924.197 1.081.633z" transform="translate(-622 -3920) translate(622 3920)"/>
                </g>
            </g>
        </g>
    </g>
</svg>
