<svg xmlns="http://www.w3.org/2000/svg" width="48" height="48" viewBox="0 0 48 48">
    <g fill="none" fill-opacity=".9" fill-rule="evenodd">
        <g fill="#585858">
            <g>
                <g>
                    <g>
                        <path d="M6.464 10.934l.012.006.238.129 3.747 2.367.207.15c.412.34.677.821.745 1.364l.016.255v7.133c.568.316.963.886 1.05 1.552l.016.257v1.74c.305.12.537.39.607.735l.016.178v12.787c0 1.298-.982 2.385-2.273 2.525l-.266.014H4.341c-1.297 0-2.385-.982-2.525-2.273l-.014-.266V26.8c0-.398.24-.751.618-.91l.006-1.743c0-.713.365-1.365.966-1.75l.1-.055v-9.497c0-.765.416-1.47 1.086-1.84.583-.321 1.283-.346 1.886-.071zM27.734 1.8c7.935 0 14.39 6.456 14.39 14.391 0 6.69-4.626 12.468-11.058 14l-.326.073v6.156h1.735c2.604 0 4.722 2.118 4.722 4.722 0 .468-.33.867-.803.963l-.177.017H19.25c-.541 0-.98-.439-.98-.98 0-2.484 1.934-4.544 4.407-4.712l.316-.01h1.734v-6.155c-6.58-1.403-11.384-7.255-11.384-14.074 0-7.935 6.456-14.391 14.391-14.391zM11.158 27.78H3.762v11.807c0 .23.136.433.324.525l.119.04.136.015h6.238c.23 0 .433-.136.524-.324l.041-.119.015-.137V27.78zm21.316 10.6h-9.483c-1.07 0-2.026.616-2.481 1.544l-.103.239h14.65c-.4-1.057-1.422-1.784-2.583-1.784zm-5.79-7.84v5.88h2.096v-5.877l-.527.03-.525.009-.636-.015-.407-.027zm1.048-26.78c-6.854 0-12.431 5.576-12.431 12.431 0 6.855 5.577 12.432 12.431 12.432 6.855 0 12.432-5.577 12.432-12.432S34.588 3.759 27.733 3.759zm3.793 2.145c2.082.768 3.863 2.134 5.152 3.951 1.318 1.858 2.015 4.05 2.015 6.335 0 6.044-4.916 10.96-10.96 10.96-6.044 0-10.96-4.916-10.96-10.96 0-2.286.697-4.477 2.015-6.335 1.289-1.816 3.07-3.183 5.152-3.95.507-.188 1.07.072 1.258.58.187.507-.072 1.07-.58 1.258-3.52 1.298-5.886 4.694-5.886 8.447 0 4.963 4.038 9 9.001 9 4.963 0 9.001-4.037 9.001-9 0-3.754-2.366-7.149-5.886-8.447-.508-.188-.767-.751-.58-1.259.187-.507.75-.767 1.258-.58zm-21.1 18.132h-5.93c-.032 0-.062.013-.08.026l-.017.017-.014.066v1.674h6.15v-1.674c0-.06-.05-.11-.11-.11zM33.48 12.158c.33.331.38.847.114 1.249l-.114.137-8.395 8.395c-.186.186-.435.287-.693.287-.258 0-.506-.1-.692-.287-.331-.33-.38-.846-.114-1.248l.114-.137 8.395-8.396c.382-.382 1.002-.382 1.385 0zm-27.957.563c-.02.012-.038.026-.048.034l-.025.09v9.232H9.47v-6.872l-.004-.044-.002-.019-.06-.056-3.736-2.36c-.052-.034-.096-.03-.143-.005zm22.902-1.667c.33.33.38.846.113 1.248l-.113.137-4.445 4.445c-.186.186-.434.287-.692.287-.258 0-.507-.101-.693-.287-.33-.33-.38-.847-.113-1.249l.113-.137 4.444-4.444c.383-.383 1.003-.383 1.386 0zm-.693-5.823c.258 0 .51.104.693.287.182.182.287.434.287.692 0 .258-.105.51-.287.693-.183.183-.435.287-.693.287-.258 0-.51-.104-.692-.287-.183-.183-.288-.434-.288-.693 0-.258.105-.51.287-.692.183-.183.435-.287.693-.287z" transform="translate(-622 -4634) translate(622 4634) translate(2 2)"/>
                    </g>
                </g>
            </g>
        </g>
    </g>
</svg>
