<svg width="100" height="100" viewBox="0 0 100 100" xmlns="http://www.w3.org/2000/svg">
    <g fill-rule="nonzero" fill="none">
        <path fill="#C3C3C3" d="M83.411 81.626 50 99.972 16.589 81.626V44.934L50 26.588l33.411 18.346z"/>
        <path fill="#BBB" d="M16.589 44.934 50 63.282l33.411-18.346v-.001L50 26.588z"/>
        <path fill="#DCDCDC" d="M16.589 44.945v36.68L50 99.973l.02-.01V63.28L16.609 44.934z"/>
        <g fill="#ECECEC">
            <path d="m83.411 44.935 11.033 11.032-33.41 18.347L50 63.28zM16.589 44.935 5.556 55.967l33.41 18.347L50 63.28zM83.411 44.935l11.033-11.033-33.41-18.346L50 26.589zM16.589 44.935 5.556 33.902l33.41-18.346L50 26.589z"/>
        </g>
        <path d="M60.306 5.085c.525.316.695 1 .378 1.525l-3.066 5.086a1.111 1.111 0 1 1-1.903-1.148l3.066-5.085c.316-.526 1-.695 1.525-.378zm-20.88 0a1.111 1.111 0 0 1 1.526.378l3.065 5.085a1.111 1.111 0 0 1-1.903 1.148L39.048 6.61a1.111 1.111 0 0 1 .378-1.525zM50 3.333c.614 0 1.111.498 1.111 1.111V10a1.111 1.111 0 0 1-2.222 0V4.444c0-.613.497-1.11 1.111-1.11z" fill="#C5C5C5"/>
    </g>
</svg>
