<svg xmlns="http://www.w3.org/2000/svg" width="1em" height="1em" viewBox="0 0 48 48">
    <path fill="currentColor" fill-rule="evenodd" d="M20.15 15.117c2.65 1.805 2.65 1.806.839 4.445-2.283 3.325-4.567 6.649-6.848 9.975-.254.37-.484.755-.826 1.29h2.166c.695-1.4 1.219-2.724 1.974-3.9.717-1.115 1.83-1.742 3.214-1.962 2.753-.439 3.65-1.649 3.5-4.477-.06-1.124.486-1.628 1.586-1.59 3.082.102 5.926 2.755 6.317 5.857.054.435.113 1.003.398 1.255 1.462 1.295 2.215 2.925 2.474 4.86.464.029.874.036 1.282.079.905.096 1.443.518 1.43 1.519-.028 1.995.04 3.992-.033 5.985-.082 2.329-1.937 4.439-4.23 4.896-.677.136-1.38.201-2.07.204-4.642.016-9.282.02-13.922.005-4.16-.014-6.359-2.21-6.398-6.352-.009-.859-.001-1.717-.001-2.576-.114-.011-.227-.024-.34-.036-.66.951-1.353 1.882-1.973 2.86-.68 1.071-1.437 1.054-2.459.45-4.846-2.865-5.46-6.346-2.193-10.66 2.571-3.396 4.86-7.007 7.288-10.513 2.38-3.44 5.354-3.977 8.824-1.614zm14.836 22.104h-21.34c-.102 2.617.97 3.772 3.536 3.804 3.432.042 6.866.023 10.3.007 1.667-.008 3.345.04 5-.128 1.96-.198 2.861-1.61 2.504-3.683zM13.181 18.434c-2.57 3.736-5.146 7.47-7.707 11.212-1.706 2.493-1.14 4.412 1.686 5.618L19.3 17.627c-2.75-2.085-4.291-1.85-6.12.807zm21.926 15.181H13.626v1.627h21.48v-1.627zm-8.265-11.89c-.352 3.495-2.626 5-5.64 5.724-1.72.414-2.608 1.455-2.716 3.394h13.701l.411-.317c-.638-.904-1.171-1.913-1.946-2.68-.675-.667-1.069-1.274-1.075-2.254-.014-1.837-.956-3.108-2.735-3.868zm16.503-9.707l-.108.25-.123.263-.087.171-.051.14c-.764 2.14-.313 4.267 2.355 6.028.715.473.338 1.564-.48 1.535l-.138-.013-.313-.02c-.988-.04-2.144.132-3.236.66-1.3.63-2.305 1.69-2.925 3.303-.367.952-1.795.544-1.602-.458l.038-.226.015-.102.05-.38c.129-1.095.153-2.244.01-3.3-.23-1.69-.845-2.829-1.9-3.297l-.242-.1c-.832-.41-.431-1.708.488-1.575l.186.038.232.038c1.08.154 2.29.065 3.41-.442 1.051-.475 1.924-1.284 2.58-2.52l.071-.178c.079-.184.154-.339.217-.455l.1-.172c.543-.81 1.86-.137 1.453.812zm-2.353 3.205c-.428.334-.89.611-1.38.833-.728.329-1.473.521-2.207.607.52.803.844 1.814 1.002 2.98.055.406.089.818.104 1.232.566-.555 1.212-1.003 1.924-1.348.744-.36 1.5-.587 2.234-.712l-.188-.21c-.91-1.06-1.377-2.207-1.489-3.382zM5.626 4.413c.079.131.185.342.3.63l.015.033c.685 1.288 1.646 1.974 2.796 2.228.659.146 1.26.131 1.664.06l.223-.045c.08-.012.158-.014.23-.005.795.08 1.012 1.242.261 1.586l-.198.08c-.758.338-1.188 1.172-1.316 2.435-.079.77-.035 1.614.087 2.435l.04.25c.013.076.025.145.037.206l.063.315c.125.944-1.251 1.334-1.613.393-.48-1.249-1.253-2.064-2.254-2.55-.833-.403-1.718-.538-2.476-.512l-.203.011-.189.017c-.818.028-1.195-1.064-.479-1.535 2.02-1.333 2.39-2.917 1.847-4.536L4.4 5.734l-.049-.097c-.075-.152-.146-.31-.214-.473-.397-.957.957-1.64 1.49-.75zm37.336 7.483c.143.202.195.472.078.773l.03-.074c.034-.086.068-.164.1-.233l.089-.18.053-.096-.35-.19zm-1.154-.538l-.102.237-.091.195-.093.184.054-.09c.161-.238.39-.347.621-.359l-.39-.167zM6.297 8.017c-.14.839-.505 1.655-1.144 2.415.508.109 1.026.28 1.537.527.435.211.84.468 1.21.774.008-.164.02-.326.037-.487.088-.867.297-1.633.65-2.266l-.21-.042c-.752-.167-1.453-.469-2.08-.921zM4.342 5.183l-.15.09.047.088.03.063.071.161.04.101c-.068-.18-.075-.351-.038-.503zm1.339-.66l-.2.082c.167.067.32.198.426.404l-.06-.12-.111-.238-.055-.129z"/>
</svg>
