<svg xmlns="http://www.w3.org/2000/svg" width="16" height="16" viewBox="0 0 16 16">
    <g fill="none" fill-rule="evenodd">
        <g fill="#9B9B9B">
            <g>
                <g>
                    <path d="M8 7.333c1.075 0 2-1.017 2-2.333 0-1.846-.351-2.333-2-2.333S6 3.154 6 5c0 1.316.925 2.333 2 2.333zm0 1.334C6.16 8.667 4.667 7.025 4.667 5S5.157 1.333 8 1.333 11.333 2.975 11.333 5 9.841 8.667 8 8.667zm2.021 2.046c-.062.029-.127.057-.195.085-.512.207-1.122.326-1.826.326s-1.314-.119-1.826-.326c-.068-.028-.133-.056-.195-.085-2.333.303-2.568.497-2.628 2.019.054.022.113.044.177.067.918.326 2.375.534 4.472.534 2.097 0 3.554-.208 4.472-.534.065-.023.124-.046.178-.068-.059-1.53-.308-1.718-2.629-2.018zm3.972 2.356c.004.163.006.283.006.375 0 0-.883 1.223-6 1.223C2.884 14.667 2 13.444 2 13.444c0-.142.003-.255.009-.458.067-2.482.582-3.198 4.251-3.653 0 0 .522.457 1.74.457 1.217 0 1.74-.457 1.74-.457 3.71.46 4.194 1.187 4.253 3.736z" transform="translate(-1028 -3674) translate(928 3342) translate(100 332)"/>
                </g>
            </g>
        </g>
    </g>
</svg>
