<svg xmlns="http://www.w3.org/2000/svg" width="1em" height="1em" viewBox="0 0 16 16">
    <g fill="none" fill-rule="evenodd">
        <g fill="currentColor">
            <g>
                <path d="M8 .667c2.159 0 3.915 1.758 3.915 3.921v2.116h.694c.4 0 .724.324.724.724v7.182c0 .4-.324.723-.723.723H3.39c-.4 0-.723-.323-.723-.723V7.428c0-.4.323-.724.722-.724h.694V4.588C4.083 2.425 5.84.667 8 .667zm-.083 1.517c-1.333 0-2.417 1.1-2.417 2.454v2.098h4.833V4.638c.001-1.354-1.084-2.454-2.416-2.454z" transform="translate(-92 -634) translate(92 634)"/>
            </g>
        </g>
    </g>
</svg>
