<svg xmlns="http://www.w3.org/2000/svg" width="1em" height="1em" viewBox="0 0 48 48">
    <path fill="currentColor" fill-rule="evenodd" d="M30.826 9.384l.062.153 4.247 11.67c.535 1.468-.584 2.99-2.113 2.954l-.154-.009-4.693-.429-6.07 2.21c-.398 1.06-.969 2.047-1.688 2.927l2.614 8.975c.323 1.113-.272 2.286-1.361 2.683l-4.911 1.788c-1.061.385-2.241-.094-2.733-1.11l-4.278-8.849c-4.642-1.21-7.913-5.501-7.742-10.413.178-5.062 4.094-9.32 9.096-9.93l.224-.024.275-.024c2.564-.188 5.03.56 7.02 2.064l5.318-1.937 3.319-3.344c1.097-1.105 2.944-.746 3.568.645zM11.53 14.032l-.207.024c-3.982.498-7.113 3.913-7.255 7.95-.143 4.078 2.674 7.621 6.604 8.44l.498.104 4.712 9.747c.031.065.106.095.172.07l4.91-1.787c.069-.025.106-.099.086-.168l-2.932-10.07.391-.428c.82-.896 1.435-1.95 1.798-3.094l.154-.483 6-2.184-2.826-7.764-5.418 1.972-.457-.389c-1.712-1.456-3.923-2.169-6.23-1.94zm-.685 3.313c3.09 0 5.593 2.504 5.593 5.593s-2.504 5.593-5.593 5.593c-3.088 0-5.592-2.505-5.592-5.593 0-3.089 2.504-5.593 5.592-5.593zm0 2.062c-1.949 0-3.53 1.581-3.53 3.53 0 1.95 1.581 3.531 3.53 3.531 1.95 0 3.53-1.58 3.53-3.53 0-1.95-1.58-3.53-3.53-3.53zm17.916-9.243l-.04.028-3.233 3.258 2.995 8.23 4.572.418c.084.008.15-.06.15-.137l-.008-.048-4.247-11.67c-.03-.08-.119-.112-.19-.079zM41.208 14.2c1.6-.493 3.33.46 3.934 2.12.621 1.71-.151 3.612-1.789 4.209-.535.195-1.127-.081-1.322-.616-.194-.535.081-1.127.616-1.322l.08-.034c.47-.23.71-.887.476-1.531-.247-.68-.91-1.03-1.449-.835l-5.623 1.932c-.539.185-1.125-.102-1.31-.64-.185-.54.101-1.126.64-1.311zm1.818-2.472c.173.5-.06 1.042-.524 1.267l-.111.046-7.194 2.504c-.538.187-1.125-.098-1.313-.635-.173-.5.06-1.042.524-1.267l.111-.046 7.194-2.504c.538-.187 1.125.098 1.313.635zm.23-5.477c.6 1.65-.1 3.48-1.636 4.146l-.167.067-7.194 2.503c-.538.187-1.126-.098-1.313-.636-.174-.499.059-1.042.524-1.266l.111-.046 7.18-2.498c.521-.19.803-.885.556-1.564-.231-.635-.824-.983-1.325-.872l-.106.03-.095.03c-.509.132-1.044-.142-1.227-.645-.195-.536.08-1.127.616-1.322 1.637-.597 3.453.364 4.075 2.073z"/>
</svg>
