<svg width="58" height="48" viewBox="0 0 58 48" xmlns="http://www.w3.org/2000/svg">
    <path d="M54.285 2.576A4.003 4.003 0 0 1 57.5 6.5v36.8a4 4 0 0 1-4 4H8.3a4.001 4.001 0 0 1-3.923-3.216c.39.232.838.376 1.316.409l.207.007h45.8a3 3 0 0 0 2.995-2.824l.005-.176V4.1c0-.556-.151-1.077-.415-1.524zM49.1.4a3.5 3.5 0 0 1 3.5 3.5v35a3.5 3.5 0 0 1-3.5 3.5H4.3a3.5 3.5 0 0 1-3.5-3.5v-35A3.5 3.5 0 0 1 4.3.4h44.8zM26.683 31.45a2.36 2.36 0 0 0-1.726.707c-.47.496-.707 1.075-.707 1.725 0 .67.235 1.231.707 1.704a2.36 2.36 0 0 0 1.726.707c.65 0 1.23-.236 1.72-.7.479-.48.713-1.04.713-1.71 0-.651-.236-1.23-.7-1.72-.503-.477-1.082-.714-1.733-.714zm0-13.9c-1.53 0-2.366.8-2.366 2.276 0 .505.068 1.652.203 3.454.136 1.815.248 3.041.338 3.695.093.812.26 1.408.507 1.764.273.395.716.577 1.318.577.615 0 1.08-.188 1.329-.593.214-.32.38-.913.496-1.748.09-.654.203-1.88.339-3.695.135-1.802.202-2.949.202-3.454 0-1.476-.835-2.276-2.366-2.276zM48.75 9.5H4.65a1.05 1.05 0 1 0 0 2.1h44.1a1.05 1.05 0 1 0 0-2.1zM5.35 3.2a1.75 1.75 0 1 0 0 3.5 1.75 1.75 0 0 0 0-3.5zm6.3 0a1.75 1.75 0 1 0 0 3.5 1.75 1.75 0 0 0 0-3.5zm6.3 0a1.75 1.75 0 1 0 0 3.5 1.75 1.75 0 0 0 0-3.5z" fill="#CDCDCD" fill-rule="evenodd"/>
</svg>
