<svg width="20" height="20" viewBox="0 0 20 20" xmlns="http://www.w3.org/2000/svg">
    <path d="M8.333 10.833c.428 0 .78.322.828.736l.006.098v6.666c0 .428-.322.78-.736.828l-.098.006H1.667a.833.833 0 0 1-.828-.736l-.006-.098v-6.666c0-.428.322-.78.736-.828l.098-.006h6.666zm10 0c.428 0 .78.322.828.736l.006.098v6.666c0 .428-.322.78-.736.828l-.098.006h-6.666a.833.833 0 0 1-.828-.736l-.006-.098v-6.666c0-.428.322-.78.736-.828l.098-.006h6.666zM7.5 12.5h-5v5h5v-5zm10 0h-5v5h5v-5zM8.333.833c.428 0 .78.322.828.736l.006.098v6.666c0 .428-.322.78-.736.828l-.098.006H1.667a.833.833 0 0 1-.828-.736l-.006-.098V1.667c0-.428.322-.78.736-.828l.098-.006h6.666zm10 0c.428 0 .78.322.828.736l.006.098v6.666c0 .428-.322.78-.736.828l-.098.006h-6.666a.833.833 0 0 1-.828-.736l-.006-.098V1.667c0-.428.322-.78.736-.828l.098-.006h6.666zM7.5 2.5h-5v5h5v-5zm10 0h-5v5h5v-5z" fill="#585858" fill-rule="evenodd"/>
</svg>
