<svg xmlns="http://www.w3.org/2000/svg" width="1em" height="1em" viewBox="0 0 48 48">
    <path fill="currentColor" fill-rule="evenodd" d="M24 4c11.046 0 20 8.954 20 20s-8.954 20-20 20S4 35.046 4 24 12.954 4 24 4zm0 2.4C14.28 6.4 6.4 14.28 6.4 24c0 9.72 7.88 17.6 17.6 17.6 9.72 0 17.6-7.88 17.6-17.6 0-9.72-7.88-17.6-17.6-17.6zm0 1.334c8.984 0 16.267 7.282 16.267 16.266 0 8.984-7.283 16.266-16.267 16.266-8.984 0-16.267-7.282-16.267-16.266 0-8.984 7.283-16.266 16.267-16.266zm0 2.4c-7.659 0-13.867 6.208-13.867 13.866 0 7.658 6.208 13.866 13.867 13.866 7.658 0 13.867-6.208 13.867-13.866 0-7.658-6.209-13.866-13.867-13.866zm5.954 1.828c.54.313.745.982.49 1.537l-.054.103-5.179 8.929 3.051 5.262.07.002c2.225.11 3.995 1.949 3.995 4.2 0 2.322-1.883 4.205-4.205 4.205-2.037 0-3.735-1.448-4.122-3.371-.387 1.922-2.086 3.37-4.122 3.37-2.323 0-4.205-1.882-4.205-4.204 0-2.15 1.614-3.923 3.696-4.174l3.067-5.29-5.178-8.93c-.333-.572-.138-1.307.436-1.64.54-.312 1.221-.158 1.577.34l.063.097 4.489 7.742 1.326-2.286-1.375-.848c-.564-.348-.739-1.087-.39-1.651.327-.531 1-.718 1.55-.447l.1.056 1.319.813.358-.616-1.242-.766c-.564-.348-.739-1.088-.39-1.652.327-.53 1.001-.717 1.55-.447l.1.056 1.187.732.398-.686c.333-.573 1.067-.769 1.64-.436zM19.878 30.19c-.997 0-1.805.808-1.805 1.805 0 .997.808 1.805 1.805 1.805.996 0 1.805-.808 1.805-1.805 0-.996-.809-1.805-1.805-1.805zm8.244 0c-.997 0-1.804.808-1.804 1.805 0 .997.807 1.805 1.804 1.805s1.805-.808 1.805-1.805c0-.996-.808-1.805-1.805-1.805zm-4.299-5.267l-1.952 3.369c1.082.583 1.88 1.628 2.129 2.87.23-1.14.92-2.113 1.867-2.716l-2.044-3.523z"/>
</svg>
