<svg width="56" height="56" viewBox="0 0 56 56" xmlns="http://www.w3.org/2000/svg">
    <path d="M28 4.667c12.887 0 23.333 10.446 23.333 23.333 0 12.887-10.446 23.333-23.333 23.333C15.113 51.333 4.667 40.887 4.667 28 4.667 15.113 15.113 4.667 28 4.667zm0 4.666C17.69 9.333 9.333 17.691 9.333 28c0 10.31 8.358 18.667 18.667 18.667 10.31 0 18.667-8.358 18.667-18.667 0-10.31-8.358-18.667-18.667-18.667zm0 5.834c1.197 0 2.183.9 2.318 2.06l.015.273v8.167l7.967 7.966a2.333 2.333 0 0 1-3.096 3.481L35 36.933l-7.966-7.967-.018-.016a2.335 2.335 0 0 1-1.334-1.845l-.015-.272V17.5A2.333 2.333 0 0 1 28 15.167z" fill="currentColor" fill-rule="evenodd"/>
</svg>
