<svg width="24" height="24" viewBox="0 0 24 24" xmlns="http://www.w3.org/2000/svg">
    <path d="M10 13a1 1 0 0 1 .993.883L11 14v8a1 1 0 0 1-.883.993L10 23H2a1 1 0 0 1-.993-.883L1 22v-8a1 1 0 0 1 .883-.993L2 13h8zm12 0a1 1 0 0 1 .993.883L23 14v8a1 1 0 0 1-.883.993L22 23h-8a1 1 0 0 1-.993-.883L13 22v-8a1 1 0 0 1 .883-.993L14 13h8zM10 1a1 1 0 0 1 .993.883L11 2v8a1 1 0 0 1-.883.993L10 11H2a1 1 0 0 1-.993-.883L1 10V2a1 1 0 0 1 .883-.993L2 1h8zm12 0a1 1 0 0 1 .993.883L23 2v8a1 1 0 0 1-.883.993L22 11h-8a1 1 0 0 1-.993-.883L13 10V2a1 1 0 0 1 .883-.993L14 1h8z" fill="#585858" fill-rule="evenodd"/>
</svg>
