<svg xmlns="http://www.w3.org/2000/svg" width="1em" height="1em" viewBox="0 0 48 48">
    <g fill="currentColor" fill-rule="evenodd">
        <path d="M19.663 0c5.69 0 10.301 4.555 10.301 10.175 0 .985-.141 1.937-.405 2.837h3.207c1.436 0 2.724.858 3.267 2.16l.067.173 2.708 7.599c.298.515.482 1.104.514 1.732l.005.2v14.692c0 2.083-1.656 3.784-3.738 3.888l-.203.005H3.941c-2.11 0-3.83-1.635-3.936-3.692l-.005-.2V24.876c0-.704.189-1.365.52-1.935l2.707-7.597c.477-1.34 1.724-2.255 3.147-2.329l.187-.005h3.207c-.264-.9-.405-1.852-.405-2.836C9.363 4.555 13.974 0 19.663 0zM36.6 34.448l-12.205 6.318 10.991.001c.629 0 1.145-.472 1.207-1.076l.007-.123v-5.12zm0-9.577L6.343 40.766H18.52l18.08-9.359V24.871zm-3.534-1.194h-14.23l-16.11 8.184.001 7.707.002.044 30.337-15.935zm-20.193 0H3.94c-.388 0-.733.18-.955.46l-.258.726-.001.014v3.955l10.146-5.155zm-1.858-7.972H6.56c-.308 0-.586.173-.721.44l-.04.093-1.69 4.745h31.107l-1.69-4.744c-.102-.288-.36-.49-.66-.527l-.101-.007-4.455.001c-1.836 2.795-5.023 4.644-8.648 4.644s-6.812-1.85-8.648-4.645zm8.648-13.01c-4.183 0-7.573 3.348-7.573 7.48 0 4.132 3.39 7.48 7.573 7.48s7.574-3.348 7.574-7.48c0-4.132-3.39-7.48-7.574-7.48z" transform="translate(4 2)"/>
        <path fill-opacity=".9" d="M18.856 7.509v1.447c-.159-.101-.303-.215-.432-.343-.173-.17-.261-.357-.268-.57.036-.091.085-.168.145-.227.075-.074.156-.136.24-.183.091-.051.177-.087.266-.112.017-.003.033-.008.049-.012m1.54 5.547c0-.306.003-.61.007-.915.004-.279.005-.56.006-.845.14.078.264.156.37.23.168.123.343.26.525.413.094.14.128.273.1.405-.03.149-.112.277-.224.373-.212.119-.398.208-.553.267-.077.029-.154.053-.231.072m2.362-1.933c-.171-.267-.395-.5-.662-.694-.264-.19-.56-.351-.88-.48-.269-.106-.536-.21-.803-.311.007-.384.009-.76.004-1.129-.004-.316-.003-.634.002-.955l.028.012c.122.06.253.118.39.175.139.06.278.114.416.162.408.145.768.098.998-.14.141-.145.212-.317.212-.51 0-.227-.105-.432-.313-.608-.177-.149-.39-.278-.632-.386-.232-.102-.469-.189-.702-.258-.152-.045-.281-.078-.39-.103.001-.046.003-.09.006-.134.005-.099.006-.202.006-.31 0-.323-.036-.608-.108-.847-.093-.303-.332-.47-.675-.47-.357 0-.601.178-.691.502-.072.26-.108.562-.108.9v.324c-.319.054-.611.142-.873.262-.31.144-.575.325-.786.54-.213.214-.38.457-.495.72-.116.268-.175.545-.175.826 0 .361.099.687.294.97.184.268.406.503.663.7.252.194.523.358.803.487l.568.262-.012 2.245c-.166-.087-.316-.181-.446-.28-.141-.107-.27-.207-.384-.302-.12-.099-.231-.183-.331-.252-.29-.2-.62-.164-.84.017-.113.093-.195.21-.245.344-.049.133-.064.275-.046.423.017.153.073.288.162.401l.002.003c.129.157.257.3.387.434.135.139.288.266.455.381.171.118.374.223.602.313.192.076.418.149.674.218.005.13.008.265.008.406 0 .201.016.386.047.55.035.183.104.338.206.462.119.146.298.22.532.22.168 0 .327-.057.472-.169.144-.111.247-.28.306-.5l.008-.029-.002-.03c-.01-.167-.014-.334-.014-.497v-.338c.268-.056.537-.129.801-.219.331-.11.634-.266.9-.462.27-.2.494-.452.667-.75.174-.304.263-.677.263-1.109 0-.378-.09-.71-.269-.987" transform="translate(4 2)"/>
    </g>
</svg>
