<svg xmlns="http://www.w3.org/2000/svg" width="1em" height="1em" viewBox="0 0 20 20">
    <g fill="none" fill-rule="evenodd">
        <g fill="currentColor">
            <g>
                <path d="M10 .833c5.063 0 9.167 4.104 9.167 9.167S15.063 19.167 10 19.167.833 15.063.833 10 4.937.833 10 .833zM10 2.5c-4.142 0-7.5 3.358-7.5 7.5 0 4.142 3.358 7.5 7.5 7.5 4.142 0 7.5-3.358 7.5-7.5 0-4.142-3.358-7.5-7.5-7.5zm1.267 5.587V15H9.2V8.087h2.067zM10.24 4.98c.173 0 .337.031.49.093.153.063.288.15.403.26.116.111.207.24.274.387.066.147.1.304.1.473 0 .165-.034.32-.1.464-.067.144-.158.27-.274.38-.115.109-.25.195-.403.26-.153.064-.317.096-.49.096-.169 0-.327-.032-.473-.096-.147-.065-.277-.151-.39-.26-.114-.11-.203-.236-.267-.38-.064-.145-.097-.3-.097-.464 0-.169.033-.326.097-.473.064-.147.153-.276.267-.387.113-.11.243-.197.39-.26.146-.062.304-.093.473-.093z" transform="translate(-56.000000, -116.000000) translate(56.000000, 116.000000)"/>
            </g>
        </g>
    </g>
</svg>
