<svg xmlns="http://www.w3.org/2000/svg" width="1em" height="1em" viewBox="0 0 36 36">
    <g fill="none" fill-rule="evenodd">
        <g>
            <g>
                <g transform="translate(-585 -354) translate(488 298) translate(97 56)">
                    <circle cx="18" cy="18" r="18" fill="#01C101"/>
                    <path fill="#FFF" d="M18 9c-5.512 0-10 3.633-10 8.098 0 4 3.558 7.35 8.363 7.987.325.069.769.215.881.49.1.251.066.638.032.899l-.137.847c-.037.25-.2.986.874.537 1.076-.448 5.764-3.39 7.864-5.799C27.313 20.49 28 18.881 28 17.1 28 12.632 23.512 9 18 9zm-3.914 10.753h-1.989c-.287 0-.524-.237-.524-.522v-3.967c0-.286.237-.523.524-.523.29 0 .526.237.526.523v3.443h1.463c.29 0 .524.235.524.524 0 .285-.235.522-.524.522zm2.055-.522c0 .285-.235.522-.526.522-.287 0-.523-.237-.523-.522v-3.967c0-.286.236-.523.525-.523.289 0 .524.237.524.523v3.967zm4.784 0c0 .224-.145.423-.36.495-.053.018-.11.026-.166.026-.176 0-.326-.075-.425-.208l-2.036-2.758v2.444c0 .286-.232.523-.525.523-.289 0-.522-.237-.522-.523v-3.966c0-.224.144-.423.358-.494.05-.02.114-.028.162-.028.162 0 .312.087.412.212l2.052 2.768v-2.458c0-.286.235-.523.525-.523.288 0 .525.237.525.523v3.967zm3.212-2.508c.291 0 .526.237.526.525 0 .287-.235.524-.526.524h-1.462v.935h1.462c.291 0 .526.235.526.524 0 .285-.235.522-.526.522H22.15c-.287 0-.522-.237-.522-.522v-3.967c0-.286.235-.523.525-.523h1.988c.288 0 .523.237.523.523 0 .29-.235.524-.526.524h-1.462v.935h1.462z"/>
                </g>
            </g>
        </g>
    </g>
</svg>
