<svg xmlns="http://www.w3.org/2000/svg" width="1em" height="1em" viewBox="0 0 20 19">
    <g fill="none" fill-rule="evenodd">
        <g fill="#FFF">
            <path d="M107 13c-5.513 0-10 3.633-10 8.098 0 4 3.558 7.35 8.362 7.987.326.069.77.215.882.49.1.251.066.638.032.899l-.137.847c-.037.25-.2.986.874.537 1.076-.448 5.764-3.39 7.864-5.799 1.436-1.57 2.123-3.178 2.123-4.96 0-4.466-4.487-8.099-10-8.099zm-3.914 10.753h-1.989c-.287 0-.524-.237-.524-.522v-3.967c0-.286.237-.523.525-.523.29 0 .525.237.525.523v3.443h1.463c.29 0 .524.235.524.524 0 .285-.235.522-.524.522zm2.055-.522c0 .285-.235.522-.526.522-.287 0-.522-.237-.522-.522v-3.967c0-.286.234-.523.525-.523.288 0 .523.237.523.523v3.967zm4.784 0c0 .224-.145.423-.36.495-.053.018-.11.026-.166.026-.176 0-.326-.075-.425-.208l-2.036-2.758v2.444c0 .286-.232.523-.526.523-.288 0-.521-.237-.521-.523v-3.966c0-.224.144-.423.358-.494.05-.02.114-.028.162-.028.162 0 .312.087.412.212l2.052 2.768v-2.458c0-.286.235-.523.525-.523.287 0 .525.237.525.523v3.967zm3.213-2.508c.29 0 .524.237.524.525 0 .287-.234.524-.525.524h-1.462v.935h1.463c.29 0 .524.235.524.524 0 .285-.234.522-.525.522h-1.988c-.287 0-.522-.237-.522-.522v-3.967c0-.286.235-.523.525-.523h1.988c.288 0 .522.237.522.523 0 .29-.234.524-.525.524h-1.462v.935h1.463z" transform="translate(-649 -266) translate(552 253)"/>
        </g>
    </g>
</svg>
