<svg xmlns="http://www.w3.org/2000/svg" width="1em" height="1em" viewBox="0 0 64 64">
    <g fill="none" fill-rule="evenodd">
        <g fill="#01C101">
            <g>
                <g transform="translate(-688 -394) translate(488 274) translate(200 119.037)">
                    <circle cx="32" cy="32.963" r="32" fill-opacity=".1"/>
                    <path fill-rule="nonzero" d="M34.24 27.73c.14-.114.38-.126.53-.025 1.749 1.174 3.036 3.08 3.505 4.999l.002.001c.496 2.153.289 4.363-.765 6.29l-.01.005-.066.139c-.828 1.575-5.523 5.928-6.646 7.184-3.333 3.402-8.844 3.459-12.246.125-3.367-3.367-3.396-8.906-.062-12.308l5.087-5.193c.034-.035.093-.004.084.044-.341 1.724-.193 3.957.347 5.616.05.15.012.315-.099.428l-2.434 2.503c-1.596 1.63-1.57 4.27.06 5.866 1.63 1.597 4.27 1.57 5.866-.06l3.985-4.067c1.147-1.182 2.591-2.494 2.777-3.924l.034-.215c.125-.996-.162-1.903-.454-2.397-.402-.748-1.002-1.312-1.665-1.698-.177-.103-.245-.323-.155-.507.572-1.172 1.439-2.09 2.324-2.806zm-1.08-8.134c3.366-3.437 8.905-3.465 12.307-.063 3.334 3.334 3.362 8.817.062 12.184l-5.165 5.272c-.034.035-.094.003-.083-.045.374-1.726.237-4.01-.322-5.631-.053-.152-.016-.321.096-.436l2.427-2.496c1.596-1.63 1.57-4.269-.06-5.866-1.613-1.613-4.24-1.6-5.836.03l-4.007 4.09c.003 0 .005 0 .007.002-1.07 1.122-2.47 2.335-2.738 3.639-.235 1.018-.085 2.005.357 2.885l.108.19c.38.635.977 1.217 1.575 1.542.173.093.237.31.134.478-.673 1.094-1.442 1.954-2.35 2.842-.123.12-.312.138-.455.044-4.317-2.867-5.14-9.338-1.37-13.238l.02-.022z"/>
                </g>
            </g>
        </g>
    </g>
</svg>
