<svg xmlns="http://www.w3.org/2000/svg" width="1em" height="1em" viewBox="0 0 20 20">
    <path fill="currentColor" fill-rule="evenodd" d="M16.667.833c.92 0 1.666.747 1.666 1.667v15c0 .92-.746 1.667-1.666 1.667H3.333c-.92 0-1.666-.747-1.666-1.667v-15c0-.92.746-1.667 1.666-1.667h13.334zm0 1.667H3.333v15h13.334v-15zm-3.334 10.833c.46 0 .834.373.834.834 0 .46-.373.833-.834.833H6.667c-.46 0-.834-.373-.834-.833 0-.46.373-.834.834-.834h6.666zm0-4.166c.46 0 .834.373.834.833 0 .46-.373.833-.834.833H6.667c-.46 0-.834-.373-.834-.833 0-.46.373-.833.834-.833h6.666zm0-4.167c.46 0 .834.373.834.833 0 .46-.373.834-.834.834H6.667c-.46 0-.834-.373-.834-.834 0-.46.373-.833.834-.833h6.666z"/>
</svg>
