<svg width="56" height="56" viewBox="0 0 56 56" xmlns="http://www.w3.org/2000/svg">
    <path d="M46.667 2.333A4.667 4.667 0 0 1 51.333 7v42a4.667 4.667 0 0 1-4.666 4.667H9.333A4.667 4.667 0 0 1 4.667 49V7a4.667 4.667 0 0 1 4.666-4.667h37.334zm0 4.667H9.333v42h37.334V7zm-8 30.333a1 1 0 0 1 1 1V41a1 1 0 0 1-1 1H17.333a1 1 0 0 1-1-1v-2.667a1 1 0 0 1 1-1h21.334zm0-11.666a1 1 0 0 1 1 1v2.666a1 1 0 0 1-1 1H17.333a1 1 0 0 1-1-1v-2.666a1 1 0 0 1 1-1h21.334zm0-11.667a1 1 0 0 1 1 1v2.667a1 1 0 0 1-1 1H17.333a1 1 0 0 1-1-1V15a1 1 0 0 1 1-1h21.334z" fill="#21B1B1" fill-rule="evenodd"/>
</svg>
