<svg width="56" height="56" viewBox="0 0 56 56" xmlns="http://www.w3.org/2000/svg">
    <path d="M46.667 2.333A4.667 4.667 0 0 1 51.333 7v42a4.667 4.667 0 0 1-4.666 4.667H9.333A4.667 4.667 0 0 1 4.667 49V7a4.667 4.667 0 0 1 4.666-4.667h37.334zm0 4.667H9.333v42h37.334V7zm-8 32.667a1 1 0 0 1 1 1v2.666a1 1 0 0 1-1 1H17.333a1 1 0 0 1-1-1v-2.666a1 1 0 0 1 1-1h21.334zm0-9.334a1 1 0 0 1 1 1V34a1 1 0 0 1-1 1H17.333a1 1 0 0 1-1-1v-2.667a1 1 0 0 1 1-1h21.334zm-.869-18.04c.895.784 1.046 2.1.396 3.06l-.179.232-8.242 9.406a2.334 2.334 0 0 1-3.162.324l-.214-.183-4.881-4.712a2.333 2.333 0 0 1 3.017-3.548l.223.19 3.12 3.012 6.63-7.564a2.333 2.333 0 0 1 3.292-.217z" fill="#21B1B1" fill-rule="evenodd"/>
</svg>
