<svg xmlns="http://www.w3.org/2000/svg" width="1em" height="1em" viewBox="0 0 24 24">
    <path fill="currentColor" fill-rule="evenodd" d="M16.607 5C20.137 5 23 8.134 23 12c0 3.784-2.742 6.866-6.169 6.996l-.224.004h-.634l-.015 2L12 18.047 16 15l-.014 2h.62c2.455 0 4.457-2.12 4.563-4.777l.004-.223c0-2.687-1.935-4.879-4.363-4.995L16.607 7h-2.694C13.41 7 13 6.552 13 6c0-.513.353-.936.807-.993L13.913 5h2.694zM8.042 3L12 5.953 8 9l.014-2h-.62C4.938 7 2.936 9.12 2.83 11.777L2.827 12c0 2.687 1.935 4.879 4.363 4.995l.203.005h2.694c.504 0 .913.448.913 1 0 .513-.353.936-.807.993l-.106.007H7.393C3.863 19 1 15.866 1 12c0-3.784 2.742-6.866 6.169-6.996L7.393 5h.634l.015-2z"/>
</svg>
