<svg xmlns="http://www.w3.org/2000/svg" width="1em" height="1em" viewBox="0 0 24 24">
    <path fill="currentColor" fill-rule="evenodd" d="M21 4a2 2 0 0 1 2 2v12a2 2 0 0 1-2 2H3a2 2 0 0 1-2-2V6a2 2 0 0 1 2-2h18zM8.515 12.8s-.305.274-1.015.274-1.015-.274-1.015-.274c-1.993.254-2.39.644-2.468 1.898l-.007.143-.005.15a5.22 5.22 0 0 1-.003.104L4 15.107l-.001.16c.035.044.609.733 3.5.733s3.465-.689 3.498-.732l.002-.002v-.117l-.004-.108c-.034-1.53-.317-1.965-2.481-2.241zM19 13h-4a1 1 0 0 0 0 2h4a1 1 0 0 0 0-2zM7.5 8c-1.659 0-1.945.985-1.945 2.2 0 1.215.871 2.2 1.945 2.2s1.944-.985 1.944-2.2C9.444 8.985 9.16 8 7.5 8zM19 9h-4a1 1 0 0 0-.117 1.993L15 11h4a1 1 0 0 0 0-2z"/>
</svg>
