<?xml version="1.0" encoding="UTF-8"?>
<svg width="24px" height="24px" viewBox="0 0 24 24" version="1.1" xmlns="http://www.w3.org/2000/svg" xmlns:xlink="http://www.w3.org/1999/xlink">
    <title>Icons/multiple-0.75</title>
    <g id="Icons/multiple-0.75" stroke="none" stroke-width="1" fill="none" fill-rule="evenodd">
        <path d="M20,19 C20.5128358,19 20.9355072,19.3860402 20.9932723,19.8833789 L21,20 L21,22.1413726 C21,22.6542084 20.6139598,23.0768797 20.1166211,23.1346448 L20,23.1413726 L4,23.1413726 C3.48716416,23.1413726 3.06449284,22.7553324 3.00672773,22.2579937 L3,22.1413726 L3,20.0202424 C3,19.4679577 3.44771525,19.0202424 4,19.0202424 C4.51283584,19.0202424 4.93550716,19.4062826 4.99327227,19.9036213 L5,20.0202424 L5,21.1423726 L19,21.1423726 L19,20 C19,19.4871642 19.3860402,19.0644928 19.8833789,19.0067277 L20,19 Z M2.89041821,7 C3.81018311,7 4.52281088,7.3587344 5.0283015,8.07620321 C5.53379213,8.79367201 5.78653744,9.80748663 5.78653744,11.1176471 L5.78653744,12.8890374 C5.78653744,14.2036542 5.5347423,15.2174688 5.03115201,15.9304813 C4.52756173,16.6434938 3.81778447,17 2.90182025,17 C1.97825467,17 1.26372657,16.6412656 0.758235941,15.9237968 C0.252745314,15.206328 0,14.1947415 0,12.8890374 L0,11.1109626 C0,9.79634581 0.251795143,8.78253119 0.75538543,8.06951872 C1.25897572,7.35650624 1.97065331,7 2.89041821,7 Z M8,15 L8,17 L6,17 L6,15 L8,15 Z M18.5444476,7.13368984 L18.5444476,8.88502674 L15.2549579,8.88502674 L15.0668241,10.8168449 C15.2036487,10.723262 15.3832309,10.64082 15.6055707,10.5695187 C15.8279106,10.4982175 16.0454996,10.4625668 16.2583377,10.4625668 C17.0830856,10.4625668 17.7168492,10.7488859 18.1596286,11.3215241 C18.602408,11.8941622 18.8237977,12.6974153 18.8237977,13.7312834 C18.8237977,14.3551693 18.7050264,14.9200089 18.4674838,15.4258021 C18.2299412,15.9315954 17.8964314,16.32041 17.4669544,16.592246 C17.0374774,16.864082 16.5300865,17 15.9447815,17 C15.4240882,17 14.9357006,16.8741087 14.4796188,16.6223262 C14.0235371,16.3705437 13.666273,16.0251783 13.4078267,15.5862299 C13.1493804,15.1472816 13.0220575,14.6515152 13.0258582,14.0989305 L14.9528037,14.0989305 C14.9718071,14.4554367 15.0687245,14.7384135 15.2435558,14.947861 C15.4183872,15.1573084 15.6483284,15.2620321 15.9333795,15.2620321 C16.5794953,15.2620321 16.9025532,14.7005348 16.9025532,13.5775401 C16.9025532,12.5392157 16.5072824,12.0200535 15.7167406,12.0200535 C15.2682602,12.0200535 14.9338003,12.1893939 14.7133608,12.5280749 L13.1854868,12.1069519 L13.6928778,7.13368984 L18.5444476,7.13368984 Z M13.4138535,7.13368984 L13.4138535,8.3368984 L10.3124975,16.8663102 L8.28293358,16.8663102 L11.3899906,8.87165775 L7.43348129,8.87165775 L7.43348129,7.13368984 L13.4138535,7.13368984 Z M20.1632121,9.63368984 L21.0297675,11.6256684 L21.924828,9.63368984 L23.9201857,9.63368984 L22.2953944,13.1564171 L24,16.8663102 L21.9932402,16.8663102 L21.0240665,14.7272727 L20.0719958,16.8663102 L18.0538339,16.8663102 L19.7641406,13.1564171 L18.1450503,9.63368984 L20.1632121,9.63368984 Z M2.89041821,8.73796791 C2.55975893,8.73796791 2.31936583,8.89839572 2.16923891,9.21925134 C2.019112,9.54010695 1.93834752,10.0258467 1.92694547,10.6764706 L1.92694547,13.1631016 C1.92694547,13.8894831 2.00485944,14.4209002 2.16068738,14.7573529 C2.31651532,15.0938057 2.56355961,15.2620321 2.90182025,15.2620321 C3.22867886,15.2620321 3.47002213,15.098262 3.62585006,14.7707219 C3.781678,14.4431818 3.86149231,13.92959 3.86529299,13.2299465 L3.86529299,10.8235294 C3.86529299,10.1238859 3.78737902,9.60138146 3.63155109,9.25601604 C3.47572315,8.91065062 3.22867886,8.73796791 2.89041821,8.73796791 Z M20,1 C20.5128358,1 20.9355072,1.38604019 20.9932723,1.88337887 L21,2 L21,4.12113013 C21,4.67341488 20.5522847,5.12113013 20,5.12113013 C19.4871642,5.12113013 19.0644928,4.73508994 19.0067277,4.23775126 L19,4.12113013 L19,2.999 L5,2.999 L5,4.14137257 C5,4.65420841 4.61395981,5.07687973 4.11662113,5.13464484 L4,5.14137257 C3.48716416,5.14137257 3.06449284,4.75533238 3.00672773,4.2579937 L3,4.14137257 L3,2 C3,1.48716416 3.38604019,1.06449284 3.88337887,1.00672773 L4,1 L20,1 Z" id="Combined-Shape" fill="#F7F8F8"></path>
    </g>
</svg>