<svg xmlns="http://www.w3.org/2000/svg" width="1em" height="1em" viewBox="0 0 24 24">
    <path fill="currentColor" fill-rule="evenodd" d="M5 19v1h14v-1h2v3H3v-3h2zM3.33 7c1.064 0 1.884.265 2.462.796.579.53.868 1.26.868 2.19 0 .623-.16 1.174-.48 1.655-.32.48-.908 1.19-1.762 2.13l-1.181 1.435.013.034H7V17H.248v-1.49l2.989-3.33c.4-.461.694-.872.88-1.233.188-.36.281-.675.281-.94 0-.385-.085-.688-.254-.912-.169-.223-.44-.335-.814-.335a.926.926 0 0 0-.817.437c-.193.291-.29.662-.29 1.114H.015L0 10.27C-.02 9.357.275 8.584.89 7.95 1.502 7.317 2.316 7 3.33 7zM10 15v2H8v-2h2zm3.265-8c1.031 0 1.864.33 2.497.988.633.659.95 1.567.95 2.724v2.576c0 1.162-.315 2.07-.943 2.727-.63.657-1.46.985-2.49.985-1.041 0-1.876-.328-2.504-.985-.63-.656-.944-1.565-.944-2.727v-2.576c0-1.162.313-2.07.937-2.727.624-.657 1.456-.985 2.497-.985zm6.223 2.637l.895 2.13h.041l.93-2.13h2.571l-2.13 3.571L24 16.86h-2.572l-.977-2.196h-.04l-.978 2.196h-2.571l2.205-3.652-2.137-3.571h2.558zm-6.223-.901a.95.95 0 0 0-.848.467c-.2.311-.299.763-.299 1.355v2.87c0 .606.1 1.063.302 1.372.201.31.487.464.858.464a.954.954 0 0 0 .845-.464c.201-.309.302-.766.302-1.371v-2.87c0-.593-.103-1.045-.309-1.356-.205-.312-.49-.467-.851-.467zM21 1v3h-2V3H5v1H3V1h18z"/>
</svg>
