<svg xmlns="http://www.w3.org/2000/svg" width="1em" height="1em" viewBox="0 0 24 24">
    <path fill="currentColor" fill-rule="evenodd" d="M5 19v1h14v-1h2v3H3v-3h2zM15.403 7.14v1.75h-3.695l-.236 2.022c.175-.13.397-.234.667-.314.27-.08.565-.124.884-.133.863-.018 1.528.259 1.994.83.466.573.699 1.384.699 2.434 0 .939-.26 1.719-.779 2.34-.519.62-1.336.931-2.45.931-.885 0-1.654-.244-2.307-.731s-.967-1.131-.941-1.933l.006-.04 2.112-.133c0 .343.104.612.31.808.206.195.48.293.82.293.4 0 .678-.126.836-.38.157-.254.236-.634.236-1.142 0-.534-.092-.954-.275-1.261-.182-.307-.472-.461-.867-.461-.285 0-.516.065-.693.194-.176.129-.298.291-.367.487l-1.933-.114.536-5.447h5.443zM8 15v2H6v-2h2zM5.026 7v9.86H2.87V9.07H1V7.346L5.026 7zm13.73 2.637l.843 2.13h.038l.874-2.13h2.419l-2.004 3.571L23 16.86h-2.418l-.92-2.196h-.038l-.918 2.196h-2.419l2.074-3.652-2.01-3.571h2.406zM21 1v3h-2V3H5v1H3V1h18z"/>
</svg>
