<?xml version="1.0" encoding="UTF-8"?>
<svg width="24px" height="24px" viewBox="0 0 24 24" version="1.1" xmlns="http://www.w3.org/2000/svg" xmlns:xlink="http://www.w3.org/1999/xlink">
    <title>Icons/multiple-1.25</title>
    <g id="Icons/multiple-1.25" stroke="none" stroke-width="1" fill="none" fill-rule="evenodd">
        <path d="M5,19 L5,20 L19,20 L19,19 L21,19 L21,22 L3,22 L3,19 L5,19 Z M6.5,15 L6.5,17 L4.5,17 L4.5,15 L6.5,15 Z M18.7109186,7 L18.7109186,8.77506775 L15.3068373,8.77506775 L15.1121498,10.7330623 C15.2537407,10.6382114 15.4395788,10.5546522 15.669664,10.4823848 C15.8997492,10.4101174 16.1249181,10.3739837 16.3451706,10.3739837 C17.1986491,10.3739837 17.8544903,10.6641825 18.3126942,11.2445799 C18.7708981,11.8249774 19,12.6391147 19,13.6869919 C19,14.3193315 18.8770912,14.8918248 18.6312737,15.4044715 C18.3854562,15.9171183 18.0403283,16.3112014 17.5958902,16.5867209 C17.1514521,16.8622403 16.6263858,17 16.0206914,17 C15.4818594,17 14.9764585,16.8724029 14.5044888,16.6172087 C14.0325192,16.3620145 13.6628096,16.0119693 13.3953601,15.5670732 C13.1279106,15.1221771 12.9961524,14.6196929 13.0000855,14.0596206 L14.9941574,14.0596206 C15.0138228,14.4209575 15.1141163,14.7077687 15.295038,14.9200542 C15.4759598,15.1323397 15.7139111,15.2384824 16.0088922,15.2384824 C16.6775159,15.2384824 17.0118277,14.6693767 17.0118277,13.5311653 C17.0118277,12.4787715 16.6027874,11.9525745 15.7847066,11.9525745 C15.3206031,11.9525745 14.974492,12.1242096 14.7463733,12.4674797 L13.1652749,12.0406504 L13.6903412,7 L18.7109186,7 Z M4,7 L4,17 L1.98208955,17 L1.98208955,9.60989011 L0,10.2760989 L0,8.51785714 L3.81492537,7 L4,7 Z M9.97705545,7 C10.8795411,7 11.5745698,7.24599413 12.0621415,7.7379824 C12.5497132,8.22997066 12.793499,8.93635748 12.793499,9.85714286 C12.793499,10.2453171 12.7323136,10.6233356 12.6099426,10.9911984 C12.4875717,11.3590612 12.2973231,11.7449786 12.0391969,12.1489506 C11.7810707,12.5529226 11.3652008,13.0934326 10.791587,13.7704807 L9.71319312,15.239675 L13,15.239675 L13,17 L7.17208413,17 L7.17208413,15.5104942 L9.85659656,12.1794177 C10.5181644,11.2902279 10.8489484,10.5838411 10.8489484,10.0602573 C10.8489484,9.63597382 10.7705545,9.31324757 10.6137667,9.09207854 C10.456979,8.8709095 10.2294455,8.76032498 9.93116635,8.76032498 C9.63671128,8.76032498 9.39770554,8.90814715 9.21414914,9.20379147 C9.03059273,9.49943579 8.93881453,9.86842699 8.93881453,10.3107651 L7,10.3107651 C7,9.70593545 7.12810707,9.1473708 7.38432122,8.63507109 C7.64053537,8.12277138 7.99617591,7.72218461 8.45124283,7.43331077 C8.90630975,7.14443692 9.41491396,7 9.97705545,7 Z M20.8393536,9.63684913 L21.46673,11.7663551 L21.4952471,11.7663551 L22.1463878,9.63684913 L23.9477186,9.63684913 L22.4553232,13.2082777 L24,16.8598131 L22.1986692,16.8598131 L21.5142586,14.6635514 L21.4857414,14.6635514 L20.8013308,16.8598131 L19,16.8598131 L20.5446768,13.2082777 L19.0475285,9.63684913 L20.8393536,9.63684913 Z M21,1 L21,4 L19,4 L19,3 L5,3 L5,4 L3,4 L3,1 L21,1 Z" id="Combined-Shape" fill="#585858"></path>
    </g>
</svg>