<svg xmlns="http://www.w3.org/2000/svg" width="1em" height="1em" viewBox="0 0 24 24">
    <path fill="currentColor" fill-rule="evenodd" d="M5 19v1h14v-1h2v3H3v-3h2zM3.367 7c1.012 0 1.828.33 2.45.988.62.659.931 1.567.931 2.724v2.576c0 1.162-.308 2.07-.925 2.727S4.393 17 3.381 17c-1.02 0-1.84-.328-2.456-.985C.308 15.36 0 14.45 0 13.288v-2.576c0-1.162.306-2.07.918-2.727C1.531 7.328 2.347 7 3.368 7zm13.082.14v1.75h-3.854l-.246 2.022a2.27 2.27 0 0 1 .696-.314c.281-.08.589-.124.921-.133.9-.018 1.594.259 2.08.83.486.573.729 1.384.729 2.434 0 .939-.271 1.719-.812 2.34-.542.62-1.393.931-2.556.931-.923 0-1.724-.244-2.405-.731-.681-.487-1.009-1.131-.982-1.933l.007-.04 2.202-.133c0 .343.108.612.323.808.215.195.5.293.855.293.417 0 .708-.126.872-.38.164-.254.246-.634.246-1.142 0-.534-.095-.954-.286-1.261-.19-.307-.492-.461-.905-.461-.297 0-.538.065-.722.194-.184.129-.312.291-.383.487l-2.016-.114.559-5.447h5.677zM9 15v2H7v-2h2zm10.575-5.363l.878 2.13h.04l.912-2.13h2.522l-2.09 3.571L24 16.86h-2.522l-.958-2.196h-.04l-.959 2.196H17l2.163-3.652-2.096-3.571h2.509zM3.367 8.736a.928.928 0 0 0-.832.467c-.195.311-.292.763-.292 1.355v2.87c0 .606.098 1.063.296 1.372.197.31.478.464.842.464.355 0 .63-.154.828-.464.198-.309.296-.766.296-1.371v-2.87c0-.593-.1-1.045-.302-1.356-.202-.312-.48-.467-.836-.467zM21 1v3h-2V3H5v1H3V1h18z"/>
</svg>
