<?xml version="1.0" encoding="UTF-8"?>
<svg width="24px" height="24px" viewBox="0 0 24 24" version="1.1" xmlns="http://www.w3.org/2000/svg" xmlns:xlink="http://www.w3.org/1999/xlink">
    <title>Icons/multiple-4.0-w</title>
    <g id="Icons/multiple-4.0-w" stroke="none" stroke-width="1" fill="none" fill-rule="evenodd">
        <path d="M5,19 L5,20 L19,20 L19,19 L21,19 L21,22 L3,22 L3,19 L5,19 Z M10,15 L10,17 L8,17 L8,15 L10,15 Z M6.20019531,7.14941406 L6.20019531,13.3427734 L7.32128906,13.3427734 L7.32128906,14.8671875 L6.20019531,14.8671875 L6.20019531,17 L4.29296875,17 L4.29296875,14.8671875 L0.369140625,14.8671875 L0.369140625,13.1650391 L4.01269531,7.14941406 L6.20019531,7.14941406 Z M13.2648516,7 C14.2962261,7 15.1285509,7.3293247 15.761851,7.98798398 C16.3951511,8.64664326 16.7117965,9.55451135 16.7117965,10.7116155 L16.7117965,13.2883845 C16.7117965,14.4499391 16.3974129,15.3589197 15.7686363,16.0153538 C15.1398598,16.6717879 14.3097967,17 13.2784222,17 C12.2380006,17 11.403414,16.6717879 10.7746374,16.0153538 C10.1458609,15.3589197 9.8314773,14.4499391 9.8314773,13.2883845 L9.8314773,10.7116155 C9.8314773,9.55006095 10.1435991,8.64108027 10.7678521,7.98464619 C11.3921051,7.32821212 12.2244299,7 13.2648516,7 Z M19.4877591,9.63684913 L20.383422,11.7663551 L20.4241339,11.7663551 L21.3537234,9.63684913 L23.9253614,9.63684913 L21.7947695,13.2082777 L24,16.8598131 L21.428362,16.8598131 L20.4512752,14.6635514 L20.4105633,14.6635514 L19.4334765,16.8598131 L16.8618385,16.8598131 L19.067069,13.2082777 L16.9296917,9.63684913 L19.4877591,9.63684913 Z M13.2648516,8.73564753 C12.8984422,8.73564753 12.6157232,8.89140921 12.416686,9.20293725 C12.2176488,9.51446529 12.1181317,9.96617417 12.1181317,10.5580774 L12.1181317,13.4285714 C12.1181317,14.0338259 12.2187797,14.4910977 12.4200786,14.8004005 C12.6213776,15.1097034 12.9074893,15.2643525 13.2784222,15.2643525 C13.640308,15.2643525 13.9218962,15.1097034 14.1231951,14.8004005 C14.3244941,14.4910977 14.4251421,14.0338259 14.4251421,13.4285714 L14.4251421,10.5580774 C14.4251421,9.96617417 14.3222323,9.51446529 14.1164098,9.20293725 C13.9105873,8.89140921 13.6267373,8.73564753 13.2648516,8.73564753 Z M4.29296875,9.06347656 L1.81152344,13.3427734 L4.29296875,13.3427734 L4.29296875,9.06347656 Z M21,1 L21,4 L19,4 L19,3 L5,3 L5,4 L3,4 L3,1 L21,1 Z" id="Combined-Shape" fill="#FFFFFF"></path>
    </g>
</svg>