<?xml version="1.0" encoding="UTF-8"?>
<svg width="24px" height="24px" viewBox="0 0 24 24" version="1.1" xmlns="http://www.w3.org/2000/svg" xmlns:xlink="http://www.w3.org/1999/xlink">
    <title>Icons/multiple-1.75</title>
    <g id="Icons/multiple-1.75" stroke="none" stroke-width="1" fill="none" fill-rule="evenodd">
        <path d="M5,19 L5,20 L19,20 L19,19 L21,19 L21,22 L3,22 L3,19 L5,19 Z M7,15 L7,17 L5,17 L5,15 L7,15 Z M4,7 L4,17 L1.98208955,17 L1.98208955,9.60989011 L0,10.2760989 L0,8.51785714 L3.81492537,7 L4,7 Z M13,7 L13,8.23626374 L9.8884652,17 L7.85224023,17 L10.9694948,8.78571429 L7,8.78571429 L7,7 L13,7 Z M18.7109186,7 L18.7109186,8.77506775 L15.3068373,8.77506775 L15.1121498,10.7330623 C15.2537407,10.6382114 15.4395788,10.5546522 15.669664,10.4823848 C15.8997492,10.4101174 16.1249181,10.3739837 16.3451706,10.3739837 C17.1986491,10.3739837 17.8544903,10.6641825 18.3126942,11.2445799 C18.7708981,11.8249774 19,12.6391147 19,13.6869919 C19,14.3193315 18.8770912,14.8918248 18.6312737,15.4044715 C18.3854562,15.9171183 18.0403283,16.3112014 17.5958902,16.5867209 C17.1514521,16.8622403 16.6263858,17 16.0206914,17 C15.4818594,17 14.9764585,16.8724029 14.5044888,16.6172087 C14.0325192,16.3620145 13.6628096,16.0119693 13.3953601,15.5670732 C13.1279106,15.1221771 12.9961524,14.6196929 13.0000855,14.0596206 L14.9941574,14.0596206 C15.0138228,14.4209575 15.1141163,14.7077687 15.295038,14.9200542 C15.4759598,15.1323397 15.7139111,15.2384824 16.0088922,15.2384824 C16.6775159,15.2384824 17.0118277,14.6693767 17.0118277,13.5311653 C17.0118277,12.4787715 16.6027874,11.9525745 15.7847066,11.9525745 C15.3206031,11.9525745 14.974492,12.1242096 14.7463733,12.4674797 L13.1652749,12.0406504 L13.6903412,7 L18.7109186,7 Z M20.8393536,9.63684913 L21.46673,11.7663551 L21.4952471,11.7663551 L22.1463878,9.63684913 L23.9477186,9.63684913 L22.4553232,13.2082777 L24,16.8598131 L22.1986692,16.8598131 L21.5142586,14.6635514 L21.4857414,14.6635514 L20.8013308,16.8598131 L19,16.8598131 L20.5446768,13.2082777 L19.0475285,9.63684913 L20.8393536,9.63684913 Z M21,1 L21,4 L19,4 L19,3 L5,3 L5,4 L3,4 L3,1 L21,1 Z" id="Combined-Shape" fill="#585858"></path>
        <g id="0.75" transform="translate(13.000000, 7.000000)"></g>
    </g>
</svg>