<?xml version="1.0" encoding="UTF-8"?>
<svg width="24px" height="24px" viewBox="0 0 24 24" version="1.1" xmlns="http://www.w3.org/2000/svg" xmlns:xlink="http://www.w3.org/1999/xlink">
    <title>Icons/multiple-4.0</title>
    <g id="Icons/multiple-4.0" stroke="none" stroke-width="1" fill="none" fill-rule="evenodd">
        <path d="M20,19 C20.5128358,19 20.9355072,19.3860402 20.9932723,19.8833789 L21,20 L21,22.1413726 C21,22.6542084 20.6139598,23.0768797 20.1166211,23.1346448 L20,23.1413726 L4,23.1413726 C3.48716416,23.1413726 3.06449284,22.7553324 3.00672773,22.2579937 L3,22.1413726 L3,20.0202424 C3,19.4679577 3.44771525,19.0202424 4,19.0202424 C4.51283584,19.0202424 4.93550716,19.4062826 4.99327227,19.9036213 L5,20.0202424 L5,21.1423726 L19,21.1423726 L19,20 C19,19.4871642 19.3860402,19.0644928 19.8833789,19.0067277 L20,19 Z M10,15 L10,17 L8,17 L8,15 L10,15 Z M13.2648516,7 C14.2962261,7 15.1285509,7.3293247 15.761851,7.98798398 C16.3951511,8.64664326 16.7117965,9.55451135 16.7117965,10.7116155 L16.7117965,13.2883845 C16.7117965,14.4499391 16.3974129,15.3589197 15.7686363,16.0153538 C15.1398598,16.6717879 14.3097967,17 13.2784222,17 C12.2380006,17 11.403414,16.6717879 10.7746374,16.0153538 C10.1458609,15.3589197 9.8314773,14.4499391 9.8314773,13.2883845 L9.8314773,10.7116155 C9.8314773,9.55006095 10.1435991,8.64108027 10.7678521,7.98464619 C11.3921051,7.32821212 12.2244299,7 13.2648516,7 Z M6.2890625,7 L6.2890625,13.0634766 L7.30078125,13.0634766 L7.30078125,14.8408203 L6.2890625,14.8408203 L6.2890625,16.953125 L3.98535156,16.953125 L3.98535156,14.8408203 L0.13671875,14.8408203 L0,13.4326172 L3.98535156,7.02050781 L3.98535156,7 L6.2890625,7 Z M19.4877591,9.63684913 L20.383422,11.7663551 L20.4241339,11.7663551 L21.3537234,9.63684913 L23.9253614,9.63684913 L21.7947695,13.2082777 L24,16.8598131 L21.428362,16.8598131 L20.4512752,14.6635514 L20.4105633,14.6635514 L19.4334765,16.8598131 L16.8618385,16.8598131 L19.067069,13.2082777 L16.9296917,9.63684913 L19.4877591,9.63684913 Z M13.2648516,8.73564753 C12.8984422,8.73564753 12.6157232,8.89140921 12.416686,9.20293725 C12.2176488,9.51446529 12.1181317,9.96617417 12.1181317,10.5580774 L12.1181317,13.4285714 C12.1181317,14.0338259 12.2187797,14.4910977 12.4200786,14.8004005 C12.6213776,15.1097034 12.9074893,15.2643525 13.2784222,15.2643525 C13.640308,15.2643525 13.9218962,15.1097034 14.1231951,14.8004005 C14.3244941,14.4910977 14.4251421,14.0338259 14.4251421,13.4285714 L14.4251421,10.5580774 C14.4251421,9.96617417 14.3222323,9.51446529 14.1164098,9.20293725 C13.9105873,8.89140921 13.6267373,8.73564753 13.2648516,8.73564753 Z M3.98535156,10.0009766 L3.84179688,10.2333984 L2.19433594,13.0634766 L3.98535156,13.0634766 L3.98535156,10.0009766 Z M20,1 C20.5128358,1 20.9355072,1.38604019 20.9932723,1.88337887 L21,2 L21,4.12113013 C21,4.67341488 20.5522847,5.12113013 20,5.12113013 C19.4871642,5.12113013 19.0644928,4.73508994 19.0067277,4.23775126 L19,4.12113013 L19,2.999 L5,2.999 L5,4.14137257 C5,4.65420841 4.61395981,5.07687973 4.11662113,5.13464484 L4,5.14137257 C3.48716416,5.14137257 3.06449284,4.75533238 3.00672773,4.2579937 L3,4.14137257 L3,2 C3,1.48716416 3.38604019,1.06449284 3.88337887,1.00672773 L4,1 L20,1 Z" id="Combined-Shape" fill="#F7F8F8"></path>
    </g>
</svg>