<?xml version="1.0" encoding="UTF-8"?>
<svg width="24px" height="24px" viewBox="0 0 24 24" version="1.1" xmlns="http://www.w3.org/2000/svg" xmlns:xlink="http://www.w3.org/1999/xlink">
    <title>Icons/multiple-1.75</title>
    <g id="Icons/multiple-1.75" stroke="none" stroke-width="1" fill="none" fill-rule="evenodd">
        <path d="M20,19 C20.5128358,19 20.9355072,19.3860402 20.9932723,19.8833789 L21,20 L21,22.1413726 C21,22.6542084 20.6139598,23.0768797 20.1166211,23.1346448 L20,23.1413726 L4,23.1413726 C3.48716416,23.1413726 3.06449284,22.7553324 3.00672773,22.2579937 L3,22.1413726 L3,20.0202424 C3,19.4679577 3.44771525,19.0202424 4,19.0202424 C4.51283584,19.0202424 4.93550716,19.4062826 4.99327227,19.9036213 L5,20.0202424 L5,21.1423726 L19,21.1423726 L19,20 C19,19.4871642 19.3860402,19.0644928 19.8833789,19.0067277 L20,19 Z M18.4374183,7 L18.4374183,8.77506775 L15.0833939,8.77506775 L14.8915693,10.7330623 C15.0310781,10.6382114 15.2141834,10.5546522 15.4408852,10.4823848 C15.667587,10.4101174 15.8894448,10.3739837 16.1064585,10.3739837 C16.9473866,10.3739837 17.5935837,10.6641825 18.0450497,11.2445799 C18.4965157,11.8249774 18.7222487,12.6391147 18.7222487,13.6869919 C18.7222487,14.3193315 18.6011473,14.8918248 18.3589445,15.4044715 C18.1167417,15.9171183 17.776689,16.3112014 17.3387864,16.5867209 C16.9008837,16.8622403 16.3835385,17 15.7867508,17 C15.2558423,17 14.7578733,16.8724029 14.2928439,16.6172087 C13.8278146,16.3620145 13.4635416,16.0119693 13.2000249,15.5670732 C12.9365083,15.1221771 12.8066876,14.6196929 12.8105628,14.0596206 L14.7753119,14.0596206 C14.7946881,14.4209575 14.8935069,14.7077687 15.0717681,14.9200542 C15.2500294,15.1323397 15.4844817,15.2384824 15.7751251,15.2384824 C16.4339167,15.2384824 16.7633125,14.6693767 16.7633125,13.5311653 C16.7633125,12.4787715 16.360287,11.9525745 15.5542361,11.9525745 C15.0969572,11.9525745 14.7559357,12.1242096 14.5311715,12.4674797 L12.9733231,12.0406504 L13.4906683,7 L18.4374183,7 Z M7,15 L7,17 L5,17 L5,15 L7,15 Z M3.89462102,7 L3.89462102,16.8644986 L1.92987191,16.8644986 L1.92987191,9.57452575 L-1.93622895e-13,10.2317073 L-1.93622895e-13,8.49728997 L3.71442214,7 L3.89462102,7 Z M13.2061699,7 L13.2061699,8.2195122 L10.0439702,16.8644986 L7.97458947,16.8644986 L11.1426021,8.76151762 L7.10847225,8.76151762 L7.10847225,7 L13.2061699,7 Z M20.0879404,9.53387534 L20.9714962,11.5528455 L21.8841163,9.53387534 L23.9186199,9.53387534 L22.2619527,13.104336 L24,16.8644986 L21.9538707,16.8644986 L20.9656833,14.696477 L19.9949345,16.8644986 L17.9371795,16.8644986 L19.6810397,13.104336 L18.0301854,9.53387534 L20.0879404,9.53387534 Z M20,1 C20.5128358,1 20.9355072,1.38604019 20.9932723,1.88337887 L21,2 L21,4.12113013 C21,4.67341488 20.5522847,5.12113013 20,5.12113013 C19.4871642,5.12113013 19.0644928,4.73508994 19.0067277,4.23775126 L19,4.12113013 L19,2.999 L5,2.999 L5,4.14137257 C5,4.65420841 4.61395981,5.07687973 4.11662113,5.13464484 L4,5.14137257 C3.48716416,5.14137257 3.06449284,4.75533238 3.00672773,4.2579937 L3,4.14137257 L3,2 C3,1.48716416 3.38604019,1.06449284 3.88337887,1.00672773 L4,1 L20,1 Z" id="Combined-Shape" fill="#F7F8F8"></path>
    </g>
</svg>