<?xml version="1.0" encoding="UTF-8"?>
<svg width="24px" height="24px" viewBox="0 0 24 24" version="1.1" xmlns="http://www.w3.org/2000/svg" xmlns:xlink="http://www.w3.org/1999/xlink">
    <title>Icons/multiple-1.25</title>
    <g id="Icons/multiple-1.25" stroke="none" stroke-width="1" fill="none" fill-rule="evenodd">
        <path d="M20,19 C20.5128358,19 20.9355072,19.3860402 20.9932723,19.8833789 L21,20 L21,22.1413726 C21,22.6542084 20.6139598,23.0768797 20.1166211,23.1346448 L20,23.1413726 L4,23.1413726 C3.48716416,23.1413726 3.06449284,22.7553324 3.00672773,22.2579937 L3,22.1413726 L3,20.0202424 C3,19.4679577 3.44771525,19.0202424 4,19.0202424 C4.51283584,19.0202424 4.93550716,19.4062826 4.99327227,19.9036213 L5,20.0202424 L5,21.1423726 L19,21.1423726 L19,20 C19,19.4871642 19.3860402,19.0644928 19.8833789,19.0067277 L20,19 Z M10.1660404,6.90332031 C11.0805982,6.90332031 11.7849239,7.15169271 12.2790176,7.6484375 C12.7731113,8.14518229 13.0201582,8.85839844 13.0201582,9.78808594 C13.0201582,10.180013 12.9581543,10.5616862 12.8341464,10.9331055 C12.7101386,11.3045247 12.5173452,11.6941732 12.2557662,12.1020508 C11.9941871,12.5099284 11.5727543,13.0556641 10.9914675,13.7392578 L9.89864851,15.2226562 L12.9814297,15.2236513 C12.8649323,14.8982856 12.8079767,14.5470424 12.8105628,14.1699219 L14.7753119,14.1699219 C14.7946881,14.5345052 14.8935069,14.8238932 15.0717681,15.0380859 C15.2500294,15.2522786 15.4844817,15.359375 15.7751251,15.359375 C16.4339167,15.359375 16.7633125,14.7851562 16.7633125,13.6367188 C16.7633125,12.5748698 16.360287,12.0439453 15.5542361,12.0439453 C15.0969572,12.0439453 14.7559357,12.2171224 14.5311715,12.5634766 L12.9733231,12.1328125 L13.4906683,7.046875 L18.4374183,7.046875 L18.4374183,8.83789062 L15.0833939,8.83789062 L14.8915693,10.8134766 C15.0310781,10.7177734 15.2141834,10.6334635 15.4408852,10.5605469 C15.667587,10.4876302 15.8894448,10.4511719 16.1064585,10.4511719 C16.9473866,10.4511719 17.5935837,10.7439779 18.0450497,11.3295898 C18.4965157,11.9152018 18.7222487,12.7366536 18.7222487,13.7939453 C18.7222487,14.4319661 18.6011473,15.0096029 18.3589445,15.5268555 C18.1167417,16.0441081 17.776689,16.4417318 17.3387864,16.7197266 C16.9008837,16.9977214 16.3835385,17.1367188 15.7867508,17.1367188 C15.2558423,17.1367188 14.7578733,17.0079753 14.2928439,16.7504883 C13.8441563,16.5020497 13.4892681,16.1645162 13.2281792,15.7378875 L13.2294214,17 L7.32354834,17 L7.32354834,15.4960938 L10.0439702,12.1328125 C10.7143875,11.235026 11.0495962,10.5218099 11.0495962,9.99316406 C11.0495962,9.56477865 10.9701537,9.23893229 10.8112687,9.015625 C10.6523836,8.79231771 10.4218066,8.68066406 10.1195375,8.68066406 C9.82114361,8.68066406 9.57894081,8.82991536 9.39292906,9.12841797 C9.20691731,9.42692057 9.11391144,9.79947917 9.11391144,10.2460938 L7.14916232,10.2460938 C7.14916232,9.63541667 7.27898303,9.07145182 7.53862443,8.55419922 C7.79826583,8.03694661 8.15866359,7.63248698 8.61981773,7.34082031 C9.08097186,7.04915365 9.59637941,6.90332031 10.1660404,6.90332031 Z M3.89462102,7.046875 L3.89462102,17 L1.92987191,17 L1.92987191,9.64453125 L-1.93622895e-13,10.3076172 L-1.93622895e-13,8.55761719 L3.71442214,7.046875 L3.89462102,7.046875 Z M20.0879404,9.60351562 L20.9714962,11.640625 L21.8841163,9.60351562 L23.9186199,9.60351562 L22.2619527,13.2060547 L24,17 L21.9538707,17 L20.9656833,14.8125 L19.9949345,17 L17.9371795,17 L19.6810397,13.2060547 L18.0301854,9.60351562 L20.0879404,9.60351562 Z M7,15 L7,17 L5,17 L5,15 L7,15 Z M20,1 C20.5128358,1 20.9355072,1.38604019 20.9932723,1.88337887 L21,2 L21,4.12113013 C21,4.67341488 20.5522847,5.12113013 20,5.12113013 C19.4871642,5.12113013 19.0644928,4.73508994 19.0067277,4.23775126 L19,4.12113013 L19,2.999 L5,2.999 L5,4.14137257 C5,4.65420841 4.61395981,5.07687973 4.11662113,5.13464484 L4,5.14137257 C3.48716416,5.14137257 3.06449284,4.75533238 3.00672773,4.2579937 L3,4.14137257 L3,2 C3,1.48716416 3.38604019,1.06449284 3.88337887,1.00672773 L4,1 L20,1 Z" id="Combined-Shape" fill="#F7F8F8"></path>
    </g>
</svg>