<svg xmlns="http://www.w3.org/2000/svg" width="1em" height="1em" viewBox="0 0 40 40">
    <path fill="currentColor" fill-rule="evenodd" d="M20 1.667c10.125 0 18.333 8.208 18.333 18.333 0 10.125-8.208 18.333-18.333 18.333C9.875 38.333 1.667 30.125 1.667 20 1.667 9.875 9.875 1.667 20 1.667zm-3.333 11.666c-.92 0-1.667.747-1.667 1.667v10c0 .92.746 1.667 1.667 1.667.92 0 1.666-.747 1.666-1.667V15c0-.92-.746-1.667-1.666-1.667zm6.666 0c-.92 0-1.666.747-1.666 1.667v10c0 .92.746 1.667 1.666 1.667.92 0 1.667-.747 1.667-1.667V15c0-.92-.746-1.667-1.667-1.667z"/>
</svg>
