<svg width="73" height="73" viewBox="0 0 73 73" xmlns="http://www.w3.org/2000/svg">
    <path d="M46.289 11.356a4 4 0 0 1 4 4v42.288a4 4 0 0 1-4 4H26.71a4 4 0 0 1-4-4V15.356a4 4 0 0 1 4-4H46.29zm-.433 2.433H27.144a2 2 0 0 0-1.994 1.85l-.006.15V57.21a2 2 0 0 0 1.851 1.995l.15.005h18.71a2 2 0 0 0 1.995-1.85l.006-.15V15.79a2 2 0 0 0-2-2zm-13.817 3.244a1.217 1.217 0 1 1 0 2.434 1.217 1.217 0 0 1 0-2.434zm8.922 0a1.217 1.217 0 0 1 0 2.434h-4.867a1.217 1.217 0 0 1 0-2.434h4.867z" fill="currentColor" fill-rule="evenodd"/>
</svg>
