<svg width="19" height="19" viewBox="0 0 19 19" xmlns="http://www.w3.org/2000/svg">
    <path d="M4.105 8.188a.667.667 0 0 1 .02-1.165l.075-.035 3.633-1.39.95-1.646-.026-.069c-.183-.497-.283-.893-.3-1.19-.015-.224.017-.533.095-.926a.667.667 0 0 1 .987-.45l6.866 3.965a.667.667 0 0 1 .067 1.11c-.34.255-.63.429-.871.52a5.323 5.323 0 0 1-.974.256l-1.02 1.763.613 3.841a.667.667 0 0 1-.922.718l-.07-.035-3.984-2.3-2.667 4.619a.667.667 0 1 1-1.154-.667l2.666-4.619-3.984-2.3zm10.54-2.383-4.76-2.748.003.012c.021.068.045.142.072.22l.07.189.225.592-1.503 2.604-2.768 1.058 6.698 3.867-.466-2.925 1.568-2.712.7-.124.16-.033z" fill="#FFF" fill-rule="evenodd"/>
</svg>
