<?xml version="1.0" encoding="UTF-8"?>
<svg width="24px" height="24px" viewBox="0 0 24 24" version="1.1" xmlns="http://www.w3.org/2000/svg" xmlns:xlink="http://www.w3.org/1999/xlink">
    <title>pin</title>
    <g id="pin" stroke="none" stroke-width="1" fill="none" fill-rule="evenodd">
        <path d="M12,23 C12,23.5522847 11.5522847,24 11,24 C10.4477153,24 10,23.5522847 10,23 L9.99951657,14.999 L3.09954903,15 C2.87005857,15 2.64755102,14.9210666 2.46936425,14.7764452 C2.07353147,14.4551762 1.98728661,13.8938547 2.25010439,13.4721209 L2.32310382,13.3698152 L6,8.83954326 L5.99951657,5.989 L5.91416519,5.91946629 C5.30354792,5.41054222 4.87574903,4.97072013 4.63076853,4.6 C4.44489152,4.31871905 4.25458186,3.89319458 4.05983953,3.32342659 C3.88121366,2.80082378 4.1600662,2.23236765 4.6826703,2.05374558 C4.78678727,2.0181592 4.89606357,2 5.00609417,2 L16.8980477,2 C17.4503403,2 17.898062,2.4477074 17.898062,3 C17.898062,3.13517126 17.8706583,3.26893947 17.8175067,3.39322213 C17.5668924,3.97922561 17.3197164,4.4222258 17.0759786,4.72222271 C16.8007002,5.06104029 16.4427514,5.41483012 16.0021321,5.78359221 L16,8.83954326 L19.6768962,13.3698152 C19.8215176,13.548002 19.900451,13.7705095 19.900451,14 C19.900451,14.5128358 19.5144108,14.9355072 19.0170721,14.9932723 L18.900451,15 L11.9999995,14.9989886 L11.9999995,14.9989886 L12,23 Z M15.003,4 L6.759,4 L6.77317787,4.01361979 C6.85111183,4.08640349 6.9371395,4.16364086 7.0309256,4.24464513 L7.26273305,4.43842458 L7.99935541,5.03853309 L8.00012033,9.54888469 L5.199,12.999 L16.8,12.999 L13.9995049,9.54842299 L14.0027837,4.84887055 L14.8206013,4.16321153 L15.003,4 Z" id="Combined-Shape" fill="#9B9B9B" transform="translate(10.999984, 13.000000) rotate(-330.000000) translate(-10.999984, -13.000000) "></path>
    </g>
</svg>