<svg xmlns="http://www.w3.org/2000/svg" width="1em" height="1em" viewBox="0 0 24 24">
    <path fill="currentColor" fill-rule="evenodd" d="M22 20c.552 0 1 .448 1 1s-.448 1-1 1H2c-.552 0-1-.448-1-1s.448-1 1-1h20zm0-8c.552 0 1 .448 1 1s-.448 1-1 1H2c-.552 0-1-.448-1-1s.448-1 1-1h20zM2 1.618c.155 0 .308.036.447.106l4.764 2.382c.494.247.694.847.447 1.341-.096.194-.253.35-.447.447L2.447 8.276c-.494.247-1.094.047-1.341-.447C1.036 7.69 1 7.537 1 7.382V2.618c0-.552.448-1 1-1zM22 4c.552 0 1 .448 1 1s-.448 1-1 1H10c-.552 0-1-.448-1-1s.448-1 1-1h12z"/>
</svg>
