<svg xmlns="http://www.w3.org/2000/svg" width="1em" height="1em" viewBox="0 0 16 16">
    <g fill="none" fill-rule="evenodd">
        <g fill="currentColor">
            <g>
                <g>
                    <g>
                        <path d="M12.667.667c1.104 0 2 .895 2 2v10.666c0 1.105-.896 2-2 2H3.333c-1.104 0-2-.895-2-2V2.667c0-1.105.896-2 2-2h9.334zm0 1.333H3.333c-.368 0-.666.298-.666.667v10.666c0 .369.298.667.666.667h9.334c.368 0 .666-.298.666-.667V2.667c0-.369-.298-.667-.666-.667zm-2.27 1.66l.943.943c.521.52.521 1.364 0 1.885l-4.484 4.484c-.198.199-.454.33-.732.374-1.408.225-1.931.251-2.283-.1-.337-.338-.334-.87-.182-2.314.032-.303.167-.587.383-.803l4.47-4.47c.52-.52 1.365-.52 1.885 0zM12 10c.368 0 .667.298.667.667 0 .368-.299.666-.667.666h-2c-.368 0-.667-.298-.667-.666 0-.369.299-.667.667-.667h2zM9.455 4.603l-4.47 4.47c-.048.458-.076.822-.082 1.086.25-.019.588-.062 1.01-.13l4.484-4.484-.942-.942z" transform="translate(-1072 -309) translate(1040 64) translate(0 197) translate(32 48)"/>
                    </g>
                </g>
            </g>
        </g>
    </g>
</svg>
