<svg xmlns="http://www.w3.org/2000/svg" width="1em" height="1em" viewBox="0 0 40 40">
    <path fill="currentColor" fill-rule="evenodd" d="M14.381 28.333c2.443 0 4.43 1.997 4.43 4.452s-1.987 4.452-4.43 4.452c-2.443 0-4.43-1.997-4.43-4.452s1.987-4.452 4.43-4.452zm17.264 0c2.443 0 4.43 1.997 4.43 4.452s-1.987 4.452-4.43 4.452c-2.443 0-4.43-1.997-4.43-4.452s1.987-4.452 4.43-4.452zM14.38 30.175c-1.432 0-2.597 1.171-2.597 2.61 0 1.439 1.165 2.61 2.597 2.61s2.597-1.171 2.597-2.61c0-1.439-1.165-2.61-2.597-2.61zm17.264 0c-1.432 0-2.597 1.171-2.597 2.61 0 1.439 1.165 2.61 2.597 2.61s2.597-1.171 2.597-2.61c0-1.439-1.165-2.61-2.597-2.61zm-8.06-27.894c4.512 0 8.186 3.676 8.209 8.205h3.752c.804 0 1.555.359 2.062.984.505.623.7 1.432.538 2.217l-2.203 10.668c-.253 1.23-1.347 2.122-2.6 2.122H12.798c-1.252 0-2.346-.892-2.6-2.122L7.173 9.793H4.588c-1.61 0-2.921-1.316-2.921-2.935s1.31-2.936 2.921-2.936h4.665c1.082 0 2.942.399 3.232 3.074l.009.08.713 3.41h2.17l.003-.21c.133-4.431 3.762-7.995 8.205-7.995zm0 16.495c-3.912 0-7.192-2.762-8.012-6.447l-3.854-.001-1.024-4.896c-.01-.051-.022-.132-.033-.237-.098-.906-.36-1.431-1.409-1.431H4.588c-.6 0-1.088.49-1.088 1.094 0 .603.488 1.093 1.088 1.093h4.073l3.332 16.03c.078.38.417.654.805.654h20.545c.388 0 .727-.275.805-.654l2.203-10.668c.068-.33-.074-.568-.165-.68-.157-.194-.39-.305-.64-.305h-3.95c-.819 3.686-4.1 6.448-8.011 6.448zm0-14.653c-3.516 0-6.376 2.873-6.376 6.405 0 3.533 2.86 6.406 6.376 6.406 3.515 0 6.375-2.873 6.375-6.406 0-3.532-2.86-6.405-6.375-6.405zM23.213 5.2c.507 0 .917.413.917.921v4.139l2.762 2.776c.357.36.357.943 0 1.303-.18.18-.414.27-.648.27-.235 0-.47-.09-.649-.27l-3.03-3.045c-.179-.18-.268-.416-.268-.651l.006-.107c-.004-.036-.007-.071-.007-.108V6.122c0-.508.41-.92.917-.92z"/>
</svg>
