<svg xmlns="http://www.w3.org/2000/svg" width="1em" height="1em" viewBox="0 0 40 40">
    <path fill="currentColor" fill-rule="evenodd" d="M21.246 3.849c.758.01 1.437.41 1.816 1.07l2.615 4.562 2.728-.165c.267-.016.522.121.656.356l1.418 2.472c.134.235.125.525-.023.751l-1.505 2.296 2.356 4.11c.796 1.387-.148 3.122-1.724 3.208l-13.57 2.68-.008.002-1.37.466-1.227.714.709 1.237.709 1.236 2.126 3.71c.785 1.367.319 3.112-1.037 3.9-1.37.799-3.104.3-3.874-1.044l-3.57-6.227c-2.244.904-4.886.044-6.14-2.142-1.371-2.391-.551-5.45 1.817-6.826l6.02-3.5 9.26-11.88c.395-.62 1.06-.986 1.792-.986zm-5.527 29.41l-3.54-6.174-2.455 1.428 3.545 6.183c.387.675 1.255.92 1.936.522.68-.395.911-1.268.52-1.95l-.003-.004c0-.002-.001-.002-.002-.003v.002zm-5.337-15.02l-5.525 3.213c-1.094.635-1.773 1.82-1.773 3.094 0 .623.164 1.239.476 1.781.977 1.705 3.148 2.29 4.842 1.307l5.525-3.213-3.545-6.181zm9.046-11.09l-7.933 10.176 3.76 6.559 12.368-2.443L19.428 7.15zm1.801-1.873c-.122-.003-.424.03-.615.343-.036.06-.059.082-.242.32l8.722 15.212c.247-.047.292-.064.389-.067.538-.013.864-.602.596-1.07L21.834 5.633c-.182-.317-.484-.355-.605-.357zm11.658 7.258c.101-.38.49-.606.868-.504l2.74.739c.378.102.602.493.5.874-.1.378-.487.607-.867.505l-2.74-.74c-.378-.101-.602-.493-.501-.874zm-4.834-1.766l-1.584.095 1.69 2.946.873-1.333-.98-1.708zm8.856-5.393c.342-.191.773-.068.963.277.191.345.068.779-.274.971l-3.95 2.213c-.343.192-.775.068-.964-.276-.19-.344-.068-.78.274-.971zM29.61 2.782c.102-.381.49-.607.869-.505.378.102.602.494.5.875l-.734 2.758c-.102.381-.49.606-.868.505-.378-.103-.602-.494-.501-.875z"/>
</svg>
