<svg xmlns="http://www.w3.org/2000/svg" width="1em" height="1em" viewBox="0 0 20 20">
    <path fill="currentColor" fill-rule="evenodd" d="M10 .833c2.457 0 4.53 1.782 4.93 4.167h1.784c.441 0 .806.344.832.784l.735 12.5c.027.46-.323.854-.783.881l-.048.002H2.553c-.46 0-.833-.373-.833-.834l.001-.05.77-12.5c.027-.44.392-.783.832-.783H5.07l.031-.173C5.571 2.525 7.607.833 10 .833zm5.928 5.834H4.107L3.439 17.5h13.127l-.638-10.833zM6.667 8.333c.46 0 .833.373.833.834 0 .46-.373.833-.833.833-.46 0-.834-.373-.834-.833 0-.46.373-.834.834-.834zm6.666 0c.46 0 .834.373.834.834 0 .46-.373.833-.834.833-.46 0-.833-.373-.833-.833 0-.46.373-.834.833-.834zM10 2.5C8.462 2.5 7.144 3.55 6.772 5h6.457C12.857 3.552 11.54 2.5 10 2.5z"/>
</svg>
