<svg xmlns="http://www.w3.org/2000/svg" width="24" height="24" viewBox="0 0 24 24">
    <g fill="none" fill-rule="evenodd">
        <g fill="#FFBE1E">
            <g>
                <path d="M12 19.242l-4.996 2.762c-.483.267-1.092.092-1.36-.392-.108-.196-.147-.423-.11-.644L6.5 15.04l-4.14-4.244c-.387-.395-.379-1.028.016-1.414.15-.146.341-.241.548-.273L4.8 8.823l3.8-.581 2.495-5.313c.234-.5.83-.715 1.33-.48.211.098.381.268.48.48L15.4 8.242l5.677.867c.546.084.921.594.838 1.14-.032.206-.127.398-.273.547L17.5 15.04l.967 5.928c.089.545-.281 1.059-.826 1.147-.222.037-.449-.003-.645-.111L12 19.242z" transform="translate(-278 -624) translate(278 624)"/>
            </g>
        </g>
    </g>
</svg>
