<svg xmlns="http://www.w3.org/2000/svg" width="100" height="100" viewBox="0 0 100 100">
    <g fill="none" fill-rule="evenodd">
        <g fill="#CDCDCD" fill-rule="nonzero">
            <g>
                <path d="M85 1.111c6.443 0 11.667 5.218 11.667 11.656V70.24c0 6.437-5.224 11.655-11.667 11.655H69.725L50.06 98.89 30.32 81.895H15c-6.443 0-11.667-5.218-11.667-11.655V12.767C3.333 6.329 8.557 1.11 15 1.11h70zM50.567 18.598c-.667-.313-1.461-.026-1.774.64l-6.003 12.79-8.062 1.232-5.496.84c-.276.042-.53.17-.73.364-.527.514-.537 1.358-.023 1.885l9.854 10.1-2.312 14.174c-.048.296.005.598.15.86.356.645 1.167.878 1.811.522L50 55.362l12.018 6.643c.262.145.564.197.86.149.726-.119 1.22-.804 1.1-1.53l-2.311-14.175 9.854-10.1c.195-.2.322-.454.364-.73.111-.728-.389-1.408-1.117-1.52L57.21 32.03l-6.003-12.79c-.132-.283-.359-.51-.64-.641z" transform="translate(-510 -696) translate(510 696)"/>
            </g>
        </g>
    </g>
</svg>
