<svg xmlns="http://www.w3.org/2000/svg" width="64" height="64" viewBox="0 0 64 64">
    <g fill="none" fill-rule="evenodd">
        <circle cx="32" cy="32" r="32" fill="#FFE9E5"/>
        <path fill="#FF7D62" d="M35.885 18.94l-1.119 15.667A1.5 1.5 0 0 1 33.27 36h-2.54a1.5 1.5 0 0 1-1.496-1.393l-1.12-15.667a1.5 1.5 0 0 1 1.497-1.607h4.778a1.5 1.5 0 0 1 1.496 1.607zm-3.864 19.727c2.155 0 3.979 1.824 3.979 4.02 0 2.197-1.824 3.98-3.98 3.98-2.196 0-4.02-1.783-4.02-3.98 0-2.196 1.824-4.02 4.02-4.02z"/>
    </g>
</svg>
