<svg xmlns="http://www.w3.org/2000/svg" width="64" height="64" viewBox="0 0 64 64">
    <g fill="none" fill-rule="evenodd">
        <circle cx="32" cy="32" r="32" fill="#DDFCF1"/>
        <path fill="#4ED1B3" d="M18 31.633c0-.402.19-.867.509-1.177l1.436-1.4a1.676 1.676 0 0 1 2.367 0l.119.117 5.52 5.773 13.626-13.781a.667.667 0 0 1 .313-.179 1.672 1.672 0 0 1 2.165.17l1.436 1.4c.679.662.679 1.693.009 2.346L29.08 41.511c-.335.328-.708.489-1.183.489-.474 0-.847-.161-1.2-.507l-8.068-8.483-.173-.254A1.73 1.73 0 0 1 18 31.633z"/>
    </g>
</svg>
