<svg xmlns="http://www.w3.org/2000/svg" width="1em" height="1em" viewBox="0 0 20 20">
    <g fill="none" fill-rule="evenodd">
        <g fill="currentColor">
            <g>
                <path d="M17.534 3.222l.898.875c.424.414.424 1.059.005 1.467L8.175 15.944c-.21.205-.443.306-.74.306-.296 0-.529-.1-.75-.317l-5.042-5.302-.108-.158c-.179-.193-.285-.465-.285-.702 0-.252.12-.542.318-.736l.898-.875c.418-.408 1.06-.408 1.479 0l.074.073 3.45 3.609 8.517-8.614c.054-.055.122-.093.195-.111.414-.299.975-.263 1.353.105z" transform="translate(-919 -794) translate(919 794)"/>
            </g>
        </g>
    </g>
</svg>
