<svg xmlns="http://www.w3.org/2000/svg" width="1em" height="1em" viewBox="0 0 20 20">
    <path fill="currentColor" fill-rule="evenodd" d="M5 3.333a1.667 1.667 0 1 0 3.333 0h8.834a2 2 0 0 1 2 2v9.334a2 2 0 0 1-2 2H8.333a1.667 1.667 0 1 0-3.333 0H2.833a2 2 0 0 1-2-2V5.333a2 2 0 0 1 2-2H5zm1.667 7.5a.833.833 0 0 0-.827.73l-.007.104v.833a.833.833 0 0 0 1.66.105L7.5 12.5v-.833a.833.833 0 0 0-.833-.834zm0-4.166a.833.833 0 0 0-.834.833v.833a.833.833 0 0 0 1.667 0V7.5a.833.833 0 0 0-.833-.833z"/>
</svg>
