<svg width="34" height="34" viewBox="0 0 34 34" xmlns="http://www.w3.org/2000/svg">
    <path d="M17 .333C26.205.333 33.667 7.795 33.667 17c0 9.205-7.462 16.667-16.667 16.667C7.795 33.667.333 26.205.333 17 .333 7.795 7.795.333 17 .333zm0 3.334C9.636 3.667 3.667 9.637 3.667 17c0 7.364 5.97 13.333 13.333 13.333 7.364 0 13.333-5.97 13.333-13.333 0-7.364-5.97-13.333-13.333-13.333zm0 4.166c.855 0 1.56.644 1.655 1.473l.012.194v5.833l5.69 5.69a1.667 1.667 0 0 1-2.212 2.487L22 23.38l-5.69-5.69-.012-.011a1.668 1.668 0 0 1-.953-1.318l-.012-.194V9.5c0-.92.747-1.667 1.667-1.667z" fill="#FFF" fill-rule="evenodd"/>
</svg>
