<svg xmlns="http://www.w3.org/2000/svg" width="1em" height="1em" viewBox="0 0 20 20">
    <path fill="currentColor" fill-rule="evenodd" d="M12.175 11.667c4.637.574 5.243 1.483 5.317 4.67.004.203.007.238.008.22v.248s-1.104 1.528-7.5 1.528c-6.395 0-7.5-1.528-7.5-1.528v-.326c.002.013.005-.025.011-.246.085-3.103.728-3.998 5.315-4.566 0 0 .653.57 2.174.57 1.522 0 2.175-.57 2.175-.57zM10 1.667c3.554 0 4.167 2.052 4.167 4.583S12.3 10.833 10 10.833c-2.301 0-4.167-2.052-4.167-4.583S6.446 1.667 10 1.667z"/>
</svg>
