<svg xmlns="http://www.w3.org/2000/svg" width="1em" height="1em" viewBox="0 0 12 8">
    <path fill="currentColor" fill-rule="evenodd" d="M6.04.182c.423.001 3.418.016 4.21.233.466.126.833.493.959.96.2.73.222 2.14.224 2.528v.146c-.002.283-.021 1.803-.224 2.574a1.364 1.364 0 0 1-.96.96c-.79.208-3.786.223-4.21.224h-.1c-.422-.001-3.41-.016-4.21-.233a1.365 1.365 0 0 1-.96-.96C.568 5.851.548 4.324.547 4.041v-.092c.001-.283.02-1.803.224-2.574.125-.466.502-.843.96-.969.76-.2 3.558-.222 4.15-.224zm-1.136 2.18v3.265l2.834-1.632-2.834-1.633z"/>
</svg>
